<svg width="1116" height="393" viewBox="0 0 1116 393" fill="none" xmlns="http://www.w3.org/2000/svg">
<path d="M266.75 0C288.358 0 288.357 24.9717 288.357 24.9717V68.9156C288.357 68.9156 288.36 93.8875 266.75 93.8875C245.142 93.8875 245.142 68.9156 245.142 68.9156C245.142 58.472 245.142 35.4152 245.142 24.9717C245.142 24.9717 245.142 0 266.75 0Z" fill="#4094B7"/>
<path d="M37.4505 43.9539H59.9197V72.6586C59.9197 72.6586 59.9115 105.5 92.2622 105.5C124.613 105.5 124.613 72.6584 124.613 72.6584V43.9437L233.908 44.0223V72.6586C233.908 72.6586 233.909 105.116 266.75 105.116C299.591 105.116 299.591 72.6586 299.591 72.6586V44.0223L322.06 43.9437C348.274 43.9437 359.509 65.1726 359.509 91.5329V130.54L0.0393138 130.145L0.0411599 91.3734C0.0411599 65.1726 11.2364 43.9539 37.4505 43.9539Z" fill="#0A9648"/>
<path d="M122.396 146.286C125.807 144.959 128.984 142.915 132.636 142.274C136.847 141.851 141.337 141.874 145.133 143.993C148.401 145.555 150.763 148.345 153.381 150.744C155.668 150.857 157.622 149.205 159.894 149.054C162.724 148.888 165.719 148.73 168.368 149.929C172.353 151.611 176.171 153.648 179.929 155.775C179.99 156.212 180.103 157.087 180.163 157.525C174.443 157.675 168.285 155.873 162.935 158.648C157.992 161.401 153.623 165.384 148.084 166.938C144.695 167.533 141.232 167.239 137.821 167.104C138.522 163.46 142.756 161.567 142.96 157.758C143.239 155.141 140.666 153.61 138.741 152.441C133.761 149.446 127.995 148.383 122.328 147.599C122.343 147.267 122.373 146.611 122.396 146.286Z" fill="#0A9649"/>
<path fill-rule="evenodd" clip-rule="evenodd" d="M257.931 145.791C264.346 145.158 270.657 147.432 276.03 150.773C283.878 155.774 290.346 162.535 297.439 168.501C307.377 177.453 317.654 186.021 327.72 194.83C338.005 203.579 347.38 211.925 359.507 218.103V311.677C359.507 311.677 346.401 300.05 333.004 295.024C311.21 286.848 288.125 283.159 265.765 276.959C261.864 275.692 256.469 273.919 256.085 269.123C257.255 266.559 260.19 265.389 262.272 263.632C266.724 260.208 271.396 255.509 271.291 249.483C271.494 244.785 268.272 240.871 264.869 238.02C256.085 230.885 245.149 227.34 234.584 223.765C217.062 218.146 198.928 214.638 181.436 208.906C175.92 206.923 170.365 204.848 165.4 201.68C165.4 200.91 165.407 200.139 165.414 199.37C176.492 195.138 187.079 189.694 197.198 183.524C206.563 177.89 216.104 172.473 224.827 165.851C230.69 161.401 236.555 156.945 242.411 152.488C246.93 149.056 252.167 146.199 257.931 145.791ZM261.709 151.815C259.46 151.612 257.495 152.37 255.755 153.467C254.018 154.563 252.437 156.037 251.012 157.265C242.883 164.252 235.366 170.088 227.607 177.087L224.264 180.165L224.22 180.209C224.203 180.227 224.18 180.254 224.151 180.286C224.092 180.35 224.007 180.441 223.909 180.56C223.713 180.799 223.453 181.148 223.178 181.591C222.629 182.473 222.021 183.752 221.81 185.319L221.69 186.203L222.564 186.013C225.743 185.313 228.589 183.858 231.319 182.292C234.066 180.717 236.663 179.045 239.463 177.804L239.467 177.807C240.464 177.409 241.461 176.899 242.473 176.682C243.437 176.475 244.228 176.579 244.854 177.27L244.872 177.288L244.894 177.307C245.996 178.326 247.36 179.655 248.825 181.079C250.288 182.501 251.848 184.018 253.327 185.407C254.803 186.793 256.213 188.063 257.375 188.989C257.956 189.451 258.49 189.84 258.948 190.115C259.177 190.252 259.398 190.371 259.606 190.455C259.807 190.535 260.038 190.601 260.268 190.601C261.118 190.601 261.626 189.945 261.936 189.296C262.257 188.622 262.491 187.704 262.7 186.708C263.127 184.671 263.475 182.187 264.189 179.884C264.578 179.073 265.365 178.679 266.244 178.681C267.149 178.683 268.066 179.111 268.584 179.843L268.621 179.887C274.32 186.545 280.878 192.423 287.093 198.478L287.115 198.496C288.394 199.63 289.805 201.081 291.339 202.159C292.904 203.258 294.705 204.052 296.872 203.869L297.45 203.822L297.443 203.241C297.407 200.412 297.08 197.386 295.702 194.738L295.413 194.216C295.062 193.612 294.677 193.023 294.301 192.45C293.922 191.872 293.551 191.307 293.211 190.732C292.628 189.746 292.155 188.756 291.924 187.684C293.246 187.356 294.528 187.352 295.662 187.984L295.706 188.006C302.009 190.912 308.304 193.974 314.657 196.829C316.314 197.637 318.135 197.799 319.828 197.86L321.144 197.908L320.347 196.859C316.951 192.39 312.255 189.111 308.03 185.739L308.023 185.732C295.315 175.859 282.631 165.962 270.296 155.66L270.263 155.635L268.409 154.271C267.762 153.808 267.089 153.354 266.394 152.97C265.003 152.201 263.454 151.67 261.709 151.815Z" fill="#4094B7"/>
<path d="M71.4886 167.489C77.5709 163.974 85.0493 162.609 91.8938 164.411C96.5801 165.882 100.693 168.643 104.828 171.215C112.873 176.638 120.608 182.528 127.852 188.992C142.635 200.457 157.69 211.605 173.19 222.104C180.722 227.15 189.015 230.883 196.841 235.432C200.659 237.46 204.726 239.844 206.621 243.939C207.473 245.523 206.364 247.311 205.157 248.352C202.621 250.449 199.406 251.437 196.38 252.583C187.408 255.977 178.028 258.097 168.98 261.227C165.561 262.592 162.075 264.108 159.396 266.703C157.215 268.596 157.434 271.749 157.154 274.366C148.604 270.753 139.307 269.388 130.191 268.015C132.712 265.571 136.832 264.591 138.13 261.069C139.383 257.207 136.025 254.318 133.799 251.686C132.274 249.966 131.059 248.005 129.905 246.036C131.738 243.412 134.259 240.085 131.92 236.933C127.671 231.841 123.966 226.328 120.351 220.769C118.615 218.001 117.257 214.705 114.299 213C111.356 211.665 107.59 212.646 105.945 215.519C102.768 220.686 99.2364 225.641 96.3612 230.989C90.6638 220.92 80.9208 204.569 78.8462 201.015C76.7716 197.462 71.1543 195.59 67.6475 199.099C64.1407 202.609 59.4371 212.932 54.9621 219.622C53.3547 222.285 51.4078 224.766 50.2079 227.648C49.3854 230.122 50.7362 232.573 51.6493 234.813C49.808 237.574 47.2875 239.814 45.4915 242.597C44.4425 245.931 46.4046 248.925 48.4723 251.346C46.397 254.212 43.3257 256.347 41.8541 259.628C41.1071 263.859 45.2575 266.612 48.7892 267.683C38.1866 268.573 27.6142 270.112 17.306 272.827C11.5255 274.464 5.82004 278.291 0.00182856 279.807V234.891C10.4007 228.714 16.8537 223.662 25.5163 210.587C33.7056 199.333 39.1827 194.604 46.6611 187.212C54.0264 179.617 62.1839 172.603 71.4886 167.489Z" fill="#82C64A"/>
<path fill-rule="evenodd" clip-rule="evenodd" d="M72.2816 204.673C73.0509 205.375 73.6162 206.265 74.1065 207.185C78.0683 214.682 82.8375 221.712 87.3049 228.908C84.8378 229.172 82.3557 229.135 79.881 229.24C82.2282 234.828 87.5846 238.253 91.3424 242.801C91.5762 243.465 91.7723 244.144 91.9458 244.83C89.1614 245.003 86.3771 244.951 83.6003 245.057C85.2378 249.589 88.8884 252.976 91.2729 257.101C94.8046 253.97 98.0591 250.5 100.957 246.782C101.975 245.56 102.466 244.046 102.873 242.545C100.972 242.274 99.0769 242.025 97.1828 241.708C97.6806 240.027 98.5412 238.495 99.6952 237.183C104.178 231.843 107.236 225.491 111.508 219.993C116.005 226.946 121.006 233.539 125.737 240.327C123.361 240.937 120.9 241.043 118.471 241.277C119.904 244.648 122.501 247.31 124.637 250.236C126.772 253.215 129.784 255.601 131.164 259.085C126.584 260.594 121.73 260.467 117.052 261.432C116.395 266.454 116.441 271.583 117.059 276.605C129.246 278.77 141.633 279.986 153.593 283.298C159.773 284.904 165.984 286.547 171.817 289.186C178.352 292.022 185.032 295.121 190.088 300.265C193.197 303.207 193.309 308.346 191.068 311.83C188.789 315.36 185.039 317.508 181.523 319.627C172.128 324.914 161.944 328.62 151.787 332.143C122.063 342.174 91.6366 350.123 60.7654 355.697C46.5029 357.945 12.5543 362.137 1.71195 362.152C1.42662 361.852 0.216008 356.636 5.50676e-05 349.583C5.50676e-05 349.583 0.0496825 308.703 0.0758848 295.766C-0.218337 293.926 1.41184 292.853 2.56637 291.745C8.97288 285.696 17.5985 282.903 25.884 280.512C40.1617 277.028 54.8258 275.34 69.4656 274.291C69.5562 270.686 70.1211 266.898 69.2608 263.406C63.1864 262.983 57.1343 261.995 51.1655 260.69C51.3551 257.84 54.0046 256.293 55.6418 254.264C57.8527 251.474 60.6521 249.007 61.8442 245.561C58.5691 245.289 55.1491 245.947 52.0249 244.68C56.092 239.386 62.6042 235.802 64.9893 229.339C62.5598 229.135 60.123 229.162 57.6934 229.079C59.2255 225.346 62.017 222.343 64.0166 218.867C67.065 214.304 69.384 209.304 72.2816 204.673ZM99.494 260.226C96.9148 260.055 94.2769 260.133 91.7191 261.227C87.5565 261.648 83.5155 262.307 79.3946 262.426L78.8205 262.444L78.7876 263.015C78.5756 266.738 78.4933 270.499 78.7985 274.244L78.8461 274.814H79.4166C81.7631 274.821 84.095 274.814 86.4236 274.807H94.2863C96.2575 274.838 98.2215 275.106 100.24 275.355C102.529 275.637 104.881 275.89 107.273 275.687L107.84 275.64L107.843 275.07C107.873 270.523 107.95 265.951 107.807 261.388L107.788 260.774L107.174 260.785C105.933 260.805 104.671 260.71 103.385 260.588C102.111 260.466 100.793 260.312 99.494 260.226Z" fill="#0A9648"/>
<path d="M198.378 222.684C205.11 224.011 211.501 226.613 218.021 228.703C227.454 232.587 237.483 235.974 245.165 242.958C248.146 245.628 250.47 250.071 248.486 253.993C246.343 258.013 242.192 260.389 238.464 262.757C234.518 265.306 229.552 266.619 226.624 270.511C224.617 273.105 225.266 277.118 227.982 278.951C231.303 281.236 235.227 282.42 238.985 283.808C251.376 287.806 264.069 290.777 276.475 294.722C291.734 300.002 307.34 305.621 319.942 316.052C325.783 320.736 330.59 327.374 331.375 334.984C332.008 341.75 328.484 349.438 324.213 352.988C319.942 356.538 316.443 360.281 293.917 364.353C299.591 360.281 302.796 357.722 305.461 351.608C308.57 344.472 307.709 335.949 303.559 329.41C298.148 320.804 289.742 314.468 280.761 309.928C275.713 306.881 270.234 304.671 264.635 302.838C267.918 305.659 271.932 307.424 275.313 310.124C281.833 315.26 287.425 321.837 290.428 329.651C292.85 335.951 292.101 339.694 291.077 343.394C285.839 361.492 262.799 397.425 176.045 391.811C235.963 382.453 263.497 329.908 237.989 304.429C212.48 278.951 179.753 281.678 180.712 273.256C181.708 270.752 184.214 269.327 186.523 268.203C193.82 264.884 201.45 262.38 208.981 259.627C215.101 257.394 221.387 255.011 226.375 250.681C228.186 249.173 229.582 246.955 229.484 244.534C229.099 241.449 226.79 239.089 224.413 237.301C216.406 231.305 207.162 227.337 198.378 222.684Z" fill="#82DCDB"/>
<path d="M208.295 296.489C265.886 334.08 208.295 378.996 89.8768 365.897C89.8768 365.897 235.927 349.052 208.295 296.489Z" fill="#82DCDB"/>
<path d="M26.2499 371.553C30.5297 374.691 34.561 377.124 41.1935 377.124H192.902C178.043 384.677 157.785 390.224 138.668 392.096H41.1935C21.6847 392.096 10.2717 381.539 5.99182 372.716C13.6438 372.649 20.0591 371.898 26.2499 371.553Z" fill="#4094B7"/>
<path d="M344.528 313.731C353.254 319.426 359.507 324.723 359.507 324.723V347.18C359.507 350.025 359.321 352.777 358.977 355.427L358.864 356.275C355.759 377.712 341.396 392.096 318.314 392.096H249.616C264.437 388.678 274.576 383.575 282.31 377.124H318.314C333.292 377.124 344.528 362.151 344.528 347.18V313.731Z" fill="#4094B7"/>
<path d="M14.9795 212.503C10.4632 216.039 5.61719 219.167 0 222.504V145.06H14.9795V212.503Z" fill="#4094B7"/>
<path d="M359.507 202.341C354.242 199.659 349.291 196.659 344.528 193.437V145.06H359.507V202.341Z" fill="#4094B7"/>
<path d="M92.2622 0C113.87 0 113.869 24.9717 113.869 24.9717V68.9156C113.869 68.9156 113.872 93.8875 92.2622 93.8875C70.6547 93.8875 70.6547 68.9156 70.6547 68.9156C70.6547 58.472 70.6547 35.4152 70.6547 24.9717C70.6547 24.9717 70.6547 0 92.2622 0Z" fill="#4094B7"/>
<path fill-rule="evenodd" clip-rule="evenodd" d="M501.937 208.536C502.054 208.542 502.172 208.548 502.29 208.554L502.28 208.554C502.166 208.548 502.051 208.542 501.937 208.536ZM564.472 144.016C564.446 144.015 564.421 144.013 564.395 144.012Z" fill="#82C64A"/>
<path d="M568.962 197.608C569.548 200.532 570.178 203.449 571.609 206.258C575.382 213.416 581.271 216.785 589.182 216.596C591.323 216.545 593.474 216.325 595.591 215.989C599.165 215.422 601.209 212.578 600.558 209.166C600.359 208.121 599.999 207.077 599.537 206.117C597.119 201.082 595.278 195.865 594.447 190.328C594.392 189.961 594.334 189.593 594.277 189.226C593.993 187.407 593.707 185.578 593.699 183.754C593.649 171.044 593.646 158.333 593.643 145.623C593.641 140.801 593.64 135.979 593.636 131.157C593.636 130.815 593.637 130.473 593.638 130.13C593.643 128.676 593.647 127.221 593.55 125.774C593.32 122.366 591.91 119.973 588.394 118.793C586.207 118.058 583.98 117.806 581.692 117.807C574.681 117.811 567.67 117.811 560.66 117.811C547.744 117.812 534.829 117.813 521.913 117.834C520.371 117.837 518.809 118.057 517.293 118.359C514.552 118.906 512.19 121.385 511.914 123.977C511.446 128.38 511.143 132.78 511.859 137.206C512.406 140.584 514.955 143.262 518.407 143.537C521.324 143.769 524.256 143.899 527.182 143.911C535.39 143.945 543.597 143.949 551.805 143.953C555.565 143.955 559.324 143.957 563.084 143.962C563.52 143.962 563.956 143.987 564.395 144.012C564.6 144.024 564.807 144.035 565.014 144.045C565.048 144.177 565.085 144.29 565.117 144.392C565.176 144.578 565.222 144.723 565.223 144.869C565.23 147.403 565.234 149.937 565.238 152.471C565.243 156.1 565.249 159.729 565.263 163.359C565.266 164.037 564.988 164.477 564.464 164.853C563.297 165.689 562.143 166.543 560.994 167.403C552.972 173.403 543.877 176.815 534.084 178.507C531.534 178.948 528.968 179.297 526.404 179.645C526.13 179.682 525.857 179.719 525.583 179.756C521.175 180.357 516.742 180.22 512.332 179.905C508.406 179.624 504.526 178.914 500.7 177.931C496.867 176.947 493.105 175.753 489.618 173.887C483.229 170.469 477.64 166.046 472.984 160.438C467.004 153.237 463.431 144.986 462.439 135.738C461.676 128.626 462.257 121.564 464.4 114.645C467.391 104.994 472.721 96.9089 480.435 90.4725C488.791 83.4999 498.325 78.9022 509.079 76.8228C515.511 75.5792 521.965 74.8532 528.499 75.172C532.606 75.3724 536.706 75.7507 540.803 76.1289C541.407 76.1847 542.011 76.2404 542.615 76.2956C546.484 76.649 550.289 77.388 554.031 78.4461C554.985 78.7156 555.936 78.9922 556.888 79.2689C559.545 80.0412 562.202 80.8136 564.895 81.4316C568.252 82.2023 571.355 81.441 573.682 78.7402C576.355 75.6366 578.415 72.1534 579.81 68.2716C580.707 65.7752 580.91 63.3195 580.344 60.7077C579.903 58.672 578.832 57.1976 577.134 56.1791C575.704 55.3222 574.216 54.5132 572.661 53.9259C566.519 51.6049 560.247 49.7341 553.804 48.3962C547.807 47.151 541.743 46.6595 535.656 46.4355C531.294 46.275 526.92 46.3566 522.554 46.4633C519.208 46.5451 515.845 46.6657 512.528 47.0776C510.171 47.3703 507.833 47.8189 505.495 48.2677C504.2 48.5162 502.906 48.7647 501.607 48.9867C495.169 50.088 489.025 52.1957 482.951 54.5006C479.999 55.6204 477.063 56.8644 474.307 58.3905C471.019 60.2112 467.885 62.3257 464.766 64.4341C456.986 69.6941 450.034 75.8401 444.404 83.4345C438.624 91.2307 433.912 99.5498 431.341 108.967C430.652 111.493 430.001 114.045 429.583 116.625C429.335 118.157 429.233 119.711 429.13 121.267C429.071 122.155 429.013 123.043 428.927 123.928C428.114 132.309 428.489 140.627 430.029 148.91C430.918 153.686 432.341 158.282 434.299 162.713C439.358 174.162 447.084 183.582 456.656 191.5C464.258 197.789 473.021 201.957 482.44 204.785C487.007 206.156 491.66 207.155 496.368 207.894L496.477 207.911C498.091 208.164 499.714 208.419 501.342 208.504C501.658 208.521 501.974 208.538 502.29 208.554C505.975 208.748 509.664 208.943 513.35 208.93C517.112 208.918 520.907 208.853 524.626 208.357C529.045 207.767 533.423 206.793 537.775 205.8C542.134 204.806 546.404 203.502 550.531 201.721C556.115 199.312 561.169 196.04 566.109 192.557C566.419 192.339 566.734 192.129 567.104 191.884C567.293 191.758 567.496 191.623 567.72 191.473C567.804 191.753 567.886 192.007 567.963 192.245C568.117 192.72 568.249 193.128 568.324 193.546C568.434 194.154 568.52 194.767 568.606 195.38C568.71 196.126 568.814 196.871 568.962 197.608Z" fill="#82C64A"/>
<path d="M610.707 176.906C609.966 172.914 609.767 169.087 610.28 165.172C610.768 161.451 611.798 157.948 613.309 154.547C615.771 149.007 619.827 144.863 624.772 141.527C629.988 138.008 635.751 135.773 641.87 134.374C647.839 133.01 653.89 132.472 659.995 132.246C666.229 132.016 672.411 132.424 678.582 133.275C681.405 133.665 684.248 133.902 687.12 134.212C687.725 132.305 687.099 130.542 686.637 128.872C685.202 123.687 682.221 119.587 677.304 117.189C675.443 116.282 673.412 115.634 671.389 115.172C667.537 114.293 663.614 113.705 659.648 114.037C656.02 114.341 652.356 114.582 648.802 115.312C642.494 116.607 636.276 118.342 629.982 119.716C626.274 120.525 623.068 119.852 620.822 116.195C619.282 113.689 618.09 111.023 617.286 108.188C616.577 105.689 617.302 103.575 619.1 101.821C621.091 99.8777 623.511 98.5518 625.978 97.3248C630.661 94.9956 635.64 93.571 640.742 92.5147C649.929 90.6126 659.213 90.0835 668.558 90.6151C675.868 91.0309 683.033 92.1807 689.784 95.2336C701.164 100.38 709.208 108.58 712.953 120.648C714.177 124.593 714.816 128.653 714.808 132.825C714.767 153.466 714.776 174.106 714.807 194.747C714.81 196.779 714.237 198.485 712.848 199.957C712.028 200.826 711 201.326 709.884 201.514C705.259 202.296 700.59 202.179 695.933 201.942C694.774 201.883 693.581 201.472 692.506 200.993C690.717 200.197 689.506 198.802 689.234 196.799C688.954 194.728 688.786 192.642 688.555 190.564C688.505 190.114 688.397 189.67 688.261 188.917C687.614 189.435 687.173 189.789 686.731 190.142C683.929 192.378 681.249 194.792 678.298 196.808C673.568 200.039 668.277 202.035 662.658 203.216C655.374 204.747 648.077 204.617 640.727 203.827C634.905 203.202 629.554 201.406 624.727 198.096C618.579 193.878 614.063 188.375 611.705 181.236C611.259 179.885 611.061 178.452 610.707 176.906ZM662.353 152.747C660.986 152.901 659.622 153.146 658.252 153.19C653.686 153.339 649.403 154.58 645.345 156.569C639.693 159.338 636.271 166.394 638.481 172.759C639.983 177.084 642.807 179.958 647.018 181.579C651.479 183.297 656.088 183.72 660.769 182.927C663.405 182.48 666.015 181.816 668.59 181.087C673.723 179.634 678.438 177.408 682.082 173.329C684.134 171.031 686.073 168.589 686.681 165.542C687.31 162.391 687.464 159.146 687.805 155.939C687.834 155.664 687.703 155.372 687.629 154.999C685.956 154.71 684.312 154.447 682.676 154.139C678.682 153.385 674.676 152.748 670.596 152.736C667.964 152.729 665.331 152.73 662.353 152.747Z" fill="#82C64A"/>
<path d="M1060.66 174.698C1076.45 174.706 1092.07 174.709 1107.68 174.735C1108.56 174.736 1109.47 174.841 1110.33 175.048C1112.4 175.547 1113.63 176.984 1114.06 178.994C1114.51 181.151 1114.87 183.343 1115.06 185.537C1115.37 189.184 1115.21 192.824 1114.18 196.373C1113.29 199.463 1111 201.294 1107.81 201.514C1107.15 201.559 1106.49 201.554 1105.83 201.553C1076.34 201.528 1046.84 201.507 1017.35 201.458C1015.99 201.455 1014.63 201.171 1013.26 201.08C1011.79 200.981 1011.19 199.958 1010.86 198.776C1010.57 197.751 1010.37 196.665 1010.35 195.603C1010.3 191.542 1010.11 187.48 1010.73 183.425C1011.05 181.293 1011.8 179.411 1013.01 177.661C1015.99 173.361 1019.62 169.629 1023.24 165.896C1032.11 156.752 1041.04 147.657 1049.93 138.533C1054.94 133.394 1059.95 128.254 1064.92 123.08C1066.16 121.798 1067.25 120.384 1068.42 119.021C1067.82 118.255 1067.11 118.526 1066.51 118.522C1053.47 118.435 1040.43 118.369 1027.39 118.301C1025.06 118.289 1022.71 118.414 1020.39 118.231C1019.01 118.121 1017.62 117.637 1016.3 117.133C1015.04 116.649 1014.41 115.468 1014.12 114.222C1013.8 112.891 1013.56 111.516 1013.52 110.152C1013.38 106.03 1013.29 101.907 1014 97.8109C1014.37 95.7203 1015.77 94.0778 1017.95 93.699C1019.59 93.4136 1021.27 93.207 1022.93 93.2052C1050.03 93.1753 1077.13 93.1776 1104.23 93.2009C1105.66 93.2022 1107.08 93.4424 1108.5 93.5944C1110.16 93.7712 1111.11 94.8037 1111.38 96.3393C1111.69 98.033 1111.94 99.7645 1111.94 101.48C1111.95 104.46 1112.18 107.448 1111.54 110.42C1111.1 112.458 1110.35 114.319 1109.07 115.918C1107.73 117.593 1106.31 119.228 1104.78 120.735C1092.93 132.404 1081 143.993 1069.2 155.706C1064.96 159.916 1060.97 164.386 1056.89 168.758C1055.34 170.419 1054.01 172.246 1052.98 174.422C1054.25 174.956 1055.5 174.63 1056.71 174.686C1057.96 174.743 1059.22 174.698 1060.66 174.698Z" fill="#4094B7"/>
<path d="M941.162 201.634C938.564 202.152 936.128 202.791 933.652 203.089C929.844 203.547 925.982 203.535 922.19 203.079C910.754 201.706 901.371 196.609 894.864 186.935C891.355 181.719 889.182 175.891 888.614 169.569C888.357 166.714 888.151 163.844 888.143 160.98C888.081 140.576 888.07 120.172 888.07 99.7678C888.07 98.5856 888.296 97.4008 888.451 96.2218C888.738 94.0456 890.234 93.0329 892.18 92.6482C893.815 92.325 895.491 92.0937 897.155 92.0541C900.862 91.966 904.575 91.9691 908.283 92.0471C909.822 92.0794 911.373 92.3077 912.886 92.6097C914.859 93.0034 915.892 94.1915 916.029 96.2127C916.199 98.7158 916.32 101.228 916.322 103.736C916.336 120.071 916.291 136.406 916.316 152.742C916.323 157.058 916.774 161.315 918.53 165.352C921.008 171.05 925.115 174.887 931.234 176.179C933.779 176.717 936.467 176.839 939.077 176.754C942.847 176.63 946.527 175.909 949.974 174.179C954.799 171.759 958.688 168.283 961.728 163.89C963.757 160.958 964.47 157.549 964.473 154.012C964.484 137.138 964.475 120.265 964.475 103.391C964.475 101.955 964.503 100.518 964.483 99.0827C964.432 95.465 966.406 93.4147 970.237 93.1596C972.681 92.9969 975.142 93.0888 977.595 93.082C980.108 93.0751 982.623 93.0204 985.133 93.1144C986.798 93.1768 988.475 93.3618 990.11 93.6805C991.599 93.9708 992.182 95.2566 992.402 96.5862C992.625 97.9355 992.692 99.3235 992.693 100.695C992.717 130.433 992.729 160.172 992.72 189.91C992.72 191.701 992.692 193.518 992.394 195.275C991.982 197.712 991.026 199.918 988.31 200.64C986.879 201.021 985.42 201.444 983.956 201.521C981.212 201.665 978.455 201.553 975.704 201.581C973.271 201.606 970.993 200.923 968.722 200.161C967.936 199.898 967.438 199.463 967.112 198.649C966.096 196.118 965.628 193.501 965.554 190.791C965.518 189.444 965.438 188.097 965.357 186.294C964.328 187.18 963.636 187.717 963.012 188.322C960.262 190.988 957.54 193.682 954.334 195.819C950.322 198.493 946.028 200.528 941.162 201.634Z" fill="#4094B7"/>
<path d="M736.203 59.9991C735.875 56.5457 735.831 53.2639 736.336 49.9935C736.808 46.9342 738.072 44.2316 742.247 43.5517C743.364 43.3697 744.499 43.2083 745.627 43.195C749.634 43.1481 753.646 43.0591 757.648 43.2103C759.711 43.2883 761.759 43.8206 763.807 44.1853C764.825 44.3666 765.173 45.0508 765.385 46.0636C765.92 48.6106 765.901 51.1719 765.901 53.7416C765.902 99.8046 765.906 145.868 765.88 191.931C765.88 193.463 765.647 195.009 765.387 196.525C764.853 199.637 762.633 200.98 759.797 201.544C758.746 201.754 757.662 201.87 756.59 201.89C752.344 201.967 748.096 202.072 743.852 201.986C742.463 201.957 741.022 201.534 739.716 201.014C737.86 200.275 736.835 198.875 736.802 196.724C736.699 190.088 736.359 183.454 736.35 176.818C736.299 139.071 736.318 101.323 736.309 63.5752C736.308 62.4395 736.248 61.3038 736.203 59.9991Z" fill="#82C64A"/>
<path d="M867.509 151.686C867.532 166.706 867.538 181.546 867.612 196.385C867.619 197.729 867.212 198.556 866.158 199.383C864.251 200.88 862.007 201.24 859.775 201.466C856.511 201.797 853.217 201.952 849.934 201.965C847.557 201.975 845.153 201.8 842.866 200.997C840.781 200.265 839.115 199.166 838.946 196.66C838.798 194.459 838.382 192.265 838.38 190.067C838.339 144.231 838.339 98.3956 838.342 52.5597C838.342 51.4253 838.487 50.2917 838.518 49.1564C838.573 47.0801 839.658 45.7166 841.41 44.7474C843.304 43.6998 845.379 43.4194 847.467 43.4259C852.131 43.4405 856.797 43.5077 861.454 43.7162C862.977 43.7844 864.474 44.3679 865.988 44.6922C866.71 44.8468 866.925 45.3264 866.975 45.9865C867.149 48.2514 867.39 50.5124 867.509 52.78C867.607 54.6308 867.589 56.4888 867.588 58.3436C867.565 89.398 867.536 120.452 867.509 151.686Z" fill="#4094B7"/>
<path d="M787.459 136.606C787.455 125.423 787.461 114.419 787.439 103.416C787.434 101.302 787.692 99.2469 788.428 97.2623C789.173 95.2535 790.609 94.0866 792.697 93.5784C798.057 92.2738 803.447 92.1624 808.877 93.0096C810.113 93.2025 811.367 93.3268 812.577 93.6283C814.879 94.2019 816.322 95.6748 816.689 98.0574C816.834 98.9967 816.873 99.9602 816.873 100.913C816.88 128.422 816.874 155.931 816.875 183.441C816.875 186.311 816.962 189.183 816.897 192.052C816.856 193.835 816.659 195.62 816.415 197.389C816.341 197.926 815.951 198.473 815.579 198.907C813.647 201.161 810.987 201.93 808.203 202.026C803.843 202.175 799.47 202.16 795.11 202.001C793.547 201.944 791.944 201.421 790.473 200.828C789.031 200.246 788.104 199.039 787.934 197.39C787.799 196.086 787.537 194.783 787.534 193.478C787.488 174.581 787.478 155.683 787.459 136.606Z" fill="#82C64A"/>
<path d="M817.453 63.2173C817.818 66.7695 817.487 70.0471 815.879 73.1315C813.602 77.497 809.942 79.9228 805.166 80.6535C802.064 81.1282 799.006 80.907 796.009 79.7235C791.43 77.9153 786.748 72.4626 786.794 66.9068C786.82 63.7535 787.066 60.7101 788.613 57.8891C790.148 55.0923 792.502 53.179 795.359 51.9486C800.251 49.8428 805.139 49.9142 809.838 52.5615C813.584 54.6713 816.339 57.6045 817.128 62.025C817.191 62.3763 817.322 62.7155 817.453 63.2173Z" fill="#82C64A"/>
<path d="M577.034 248.924C574.088 249.202 572.317 249.906 571.762 251.037C571.399 251.763 571.378 253.044 571.314 271.335C571.25 291.206 571.292 292.487 572.04 293.981C572.381 294.664 573.683 295.838 574.451 296.137C574.75 296.265 575.305 296.499 575.647 296.649C576.159 296.862 581.111 296.926 598.612 296.99C617.139 297.033 621.002 297.097 621.279 297.353C621.749 297.737 621.77 301.11 621.322 303.244C621.151 304.055 621.002 305.165 621.002 305.677C621.002 306.211 620.874 307.171 620.703 307.812C620.532 308.473 620.298 309.476 620.191 310.074C620.063 310.65 619.828 311.76 619.636 312.528C619.444 313.297 619.188 314.343 619.081 314.855C618.953 315.367 618.782 315.901 618.675 316.029C618.59 316.157 618.441 316.498 618.377 316.797C618.27 317.331 617.779 318.739 617.309 319.871C616.968 320.724 614.62 325.377 613.745 326.935C611.483 330.991 605.272 338.29 602.006 340.745C601.6 341.044 601.067 341.47 600.832 341.705C600.597 341.919 599.872 342.495 599.231 342.986C598.591 343.477 597.353 344.395 596.499 345.056C595.646 345.697 594.536 346.529 594.002 346.892C592.401 348.002 590.758 349.773 590.139 351.075C589.627 352.185 589.563 352.526 589.584 354.661C589.584 356.838 589.648 357.158 590.246 358.481C591.484 361.235 593.511 363.305 596.179 364.543C598.548 365.632 600.597 365.525 604.034 364.073C607.406 362.643 611.568 360.381 615.346 357.905C617.438 356.539 617.566 356.432 620.041 354.405C623.243 351.758 624.673 350.371 627.917 346.678C630.457 343.776 630.094 344.245 631.78 341.876C632.549 340.809 633.253 339.848 633.339 339.742C633.573 339.443 634.278 338.248 634.982 336.967C635.494 336.049 635.878 335.323 637.244 332.805C637.351 332.634 637.629 331.994 637.885 331.418C638.12 330.82 638.546 329.86 638.824 329.283C639.08 328.686 639.379 327.981 639.464 327.682C639.55 327.384 639.699 327.042 639.784 326.935C639.87 326.807 640.147 326.103 640.425 325.335C640.702 324.566 640.98 323.841 641.065 323.734C641.15 323.606 641.385 323.03 641.599 322.453C641.791 321.856 642.089 321.087 642.239 320.746C642.858 319.316 644.117 314.727 644.501 312.55C644.608 311.931 644.8 311.226 644.907 311.013C645.035 310.8 645.12 310.33 645.12 309.967C645.12 309.583 645.248 308.644 645.419 307.854C645.91 305.592 646.209 303.244 646.401 300.192C646.508 298.612 646.7 296.265 646.849 294.963C647.148 292.167 646.956 284.462 646.529 282.114C645.91 278.784 644.501 277.418 641.044 276.82C639.229 276.5 636.796 276.458 618.953 276.458C599.68 276.458 598.847 276.436 597.438 276.031C595.325 275.433 594.642 274.942 593.938 273.47C593.618 272.808 593.575 271.506 593.469 262.157C593.362 252.169 593.34 251.528 592.956 250.952C591.74 249.095 590.886 248.882 584.291 248.818C581.303 248.775 578.037 248.839 577.034 248.924Z" fill="#4094B7"/>
<path d="M702.002 248.902C700.508 249.03 698.608 249.457 697.626 249.862C697.157 250.076 696.538 250.993 696.282 251.89C695.94 253 695.855 266.318 696.111 280.213L696.303 291.995L696.837 293.147C697.541 294.663 698.821 295.751 700.593 296.349L702.002 296.84L724.22 296.882C741.487 296.946 746.503 297.01 746.674 297.224C746.93 297.544 746.418 304.289 745.97 306.444C745.778 307.255 745.65 308.237 745.65 308.6C745.65 308.963 745.5 309.689 745.329 310.179C745.159 310.67 745.009 311.311 745.009 311.588C745.009 311.866 744.881 312.399 744.71 312.783C744.561 313.168 744.07 314.534 743.665 315.835C742.469 319.464 742.299 319.891 740.847 322.794C737.838 328.834 736.045 331.352 730.538 337.265C727.507 340.509 724.925 342.622 718.607 346.997C717.113 348.043 715.491 349.879 714.787 351.33C714.274 352.397 714.21 352.781 714.232 354.574C714.232 356.196 714.338 356.815 714.723 357.669C715.875 360.252 718.799 363.581 720.869 364.648C721.83 365.161 722.257 365.246 723.794 365.246C726.205 365.246 727.849 364.755 731.349 362.984C734.444 361.426 737.816 359.505 737.923 359.227C737.966 359.142 738.094 359.056 738.201 359.056C738.435 359.056 741.978 356.709 742.469 356.239C742.64 356.09 743.067 355.727 743.408 355.471C745.287 354.019 750.985 348.555 753.141 346.122C753.568 345.653 754.934 343.924 756.151 342.28C762.127 334.34 766.716 324.437 768.893 314.875C769.149 313.765 769.49 312.314 769.661 311.673C769.811 311.033 770.109 309.582 770.301 308.472C770.472 307.362 770.728 306.017 770.835 305.484C770.963 304.95 771.134 303.627 771.241 302.56C771.369 301.471 771.497 300.489 771.582 300.383C771.646 300.255 771.774 298.035 771.881 295.41C772.094 289.796 771.881 282.454 771.454 281.237C770.878 279.53 769.597 278.079 768.06 277.353C766.075 276.456 766.225 276.456 744.582 276.456C725.224 276.456 723.858 276.435 722.15 276.051C719.247 275.411 718.244 274.578 717.881 272.465C717.753 271.739 717.647 267.108 717.604 261.409C717.583 252.061 717.561 251.548 717.156 250.887C716.707 250.118 715.555 249.478 714.061 249.158C712.823 248.88 704.221 248.71 702.002 248.902Z" fill="#82C64A"/>
<path d="M529.369 248.71C527.747 248.817 526.659 248.988 526.36 249.201C526.061 249.393 525.506 250.396 524.908 251.826C523.969 254.046 523.67 254.921 522.966 257.44C522.155 260.321 521.899 261.218 521.749 261.709C521.643 262.007 521.365 262.904 521.131 263.736C520.533 265.743 518.783 271.42 518.441 272.487C518.185 273.32 517.822 274.493 517.182 276.756C517.033 277.332 516.734 278.591 516.542 279.531C516.35 280.47 516.093 281.665 515.965 282.199C515.581 283.778 515.453 286.83 515.773 287.214C516.115 287.62 517.054 288.089 518.655 288.644C520.576 289.327 524.439 289.306 525.911 288.623C526.936 288.132 528.366 286.873 528.366 286.446C528.366 286.339 528.622 285.742 528.921 285.123C529.22 284.525 529.689 283.33 529.967 282.519C530.244 281.686 530.564 280.79 530.671 280.491C530.799 280.192 531.183 278.954 531.568 277.716C531.952 276.478 532.336 275.262 532.443 274.984C532.549 274.728 533.147 272.957 533.787 271.036C534.449 269.136 535.175 267.044 535.409 266.404C535.666 265.764 535.922 265.038 535.986 264.803C536.028 264.569 536.178 264.184 536.285 263.95C536.647 263.117 538.462 257.717 538.952 255.946C539.145 255.305 539.422 254.345 539.593 253.811C540.254 251.72 539.7 249.671 538.312 249.052C537.458 248.646 532.741 248.475 529.369 248.71Z" fill="#4094B7"/>
<path d="M504.568 249.819C503.33 250.268 503.266 250.332 502.497 251.847C501.793 253.234 501.388 254.536 500.299 258.933C500 260.15 499.765 261.004 498.805 264.589C497.994 267.641 497.524 269.37 496.756 272.166C496.393 273.511 495.945 275.154 495.774 275.795C495.603 276.435 495.326 277.481 495.155 278.078C493.725 283.372 493.554 284.119 493.426 285.677C493.32 286.979 493.362 287.192 493.875 287.961C494.216 288.494 494.643 288.857 495.027 288.921C495.347 288.985 495.988 289.156 496.457 289.305C498.229 289.839 503.031 289.519 504.632 288.75C505.699 288.238 506.51 287.021 507.556 284.332C507.748 283.799 508.047 283.073 508.196 282.731C508.346 282.369 508.538 281.771 508.602 281.408C508.687 281.024 508.858 280.661 508.965 280.597C509.071 280.512 509.157 280.277 509.157 280.063C509.157 279.829 509.285 279.338 509.455 278.954C509.605 278.569 509.904 277.673 510.096 276.969C510.309 276.264 510.565 275.389 510.693 275.048C510.8 274.685 510.992 274.066 511.078 273.66C511.163 273.255 511.355 272.614 511.462 272.273C512.102 270.48 512.999 267.449 512.999 267.172C512.999 266.98 513.127 266.532 513.297 266.147C513.447 265.763 513.746 264.867 513.959 264.162C514.172 263.458 514.45 262.498 514.599 262.028C514.919 261.068 515.432 259.275 515.859 257.61C516.029 256.991 516.328 255.945 516.499 255.283C516.947 253.704 516.926 252.466 516.435 251.506C515.496 249.67 514.407 249.329 509.52 249.35C506.297 249.35 505.699 249.414 504.568 249.819Z" fill="#4094B7"/>
<path d="M542.457 276.607C539.917 277.055 538.018 278.25 537.142 279.979L536.588 281.046L536.524 320.532C536.459 363.582 536.395 360.957 537.633 362.28C537.932 362.601 538.637 363.027 539.191 363.219C539.746 363.412 540.365 363.646 540.536 363.71C542.308 364.393 554.388 364.329 556.501 363.625C557.995 363.113 559.425 361.768 559.596 360.744C559.66 360.338 559.809 359.335 559.938 358.524C560.215 356.667 560.044 300.853 559.724 287.983C559.489 278.442 559.511 278.634 558.038 277.653C556.565 276.671 554.751 276.457 548.604 276.479C545.509 276.5 542.756 276.564 542.457 276.607Z" fill="#4094B7"/>
<path d="M664.736 276.842C663.199 277.311 662.537 277.76 661.812 278.848L661.235 279.745V299.487V319.252L661.705 320.212C662.303 321.493 663.114 322.197 664.544 322.688C665.568 323.051 666.507 323.094 672.206 323.158C679.377 323.222 680.06 323.136 682.109 321.856C684.244 320.532 684.18 321.322 684.18 299.317C684.18 278.379 684.244 279.211 682.707 277.93C681.192 276.65 680.914 276.607 673.081 276.543C666.827 276.479 665.782 276.522 664.736 276.842Z" fill="#82C64A"/>
<path d="M793.779 276.672C790.641 277.056 789.168 277.974 788.251 280.172C787.973 280.855 787.909 281.901 787.909 286.255V291.527L788.613 292.679C789.147 293.618 789.531 293.981 790.47 294.43C791.601 295.006 791.772 295.027 796.126 295.134C801.441 295.262 806.585 295.625 807.353 295.924C807.673 296.03 808.442 296.201 809.061 296.308C809.701 296.393 810.555 296.607 810.96 296.756C815.741 298.485 817.47 300.171 818.281 303.885C818.473 304.696 818.729 305.912 818.879 306.553C819.007 307.236 819.178 310.224 819.22 313.596L819.327 319.487L818.644 321.152C817.278 324.417 814.653 327.747 810.853 331.013C809.594 332.101 803.383 336.327 802.679 336.583C802.465 336.669 801.91 336.989 801.42 337.33C800.929 337.65 800.48 337.928 800.416 337.928C800.352 337.928 799.584 338.355 798.73 338.888C797.855 339.422 797.065 339.849 797.001 339.849C796.852 339.849 793.309 341.492 792.135 342.111C791.836 342.282 791.431 342.41 791.239 342.41C791.047 342.41 790.726 342.496 790.513 342.624C790.086 342.88 788.507 343.435 787.589 343.669C787.226 343.755 786.735 343.947 786.479 344.075C786.223 344.224 785.775 344.331 785.476 344.331C785.177 344.331 784.9 344.416 784.814 344.523C784.75 344.63 784.387 344.801 784.003 344.886C783.341 345.014 782.637 345.292 781.079 346.017C780.033 346.508 778.753 347.703 778.262 348.685C777.6 349.966 777.195 353.722 777.451 356.006C777.557 357.052 777.664 358.546 777.664 359.336C777.664 361.299 778.347 362.644 779.862 363.647C780.674 364.159 786.266 364.415 791.217 364.159C793.458 364.031 795.571 363.861 795.913 363.754C796.276 363.647 797.044 363.498 797.62 363.412C798.218 363.348 798.794 363.199 798.901 363.113C799.029 363.028 799.435 362.879 799.84 362.793C800.587 362.644 804.685 360.595 806.158 359.656C811.344 356.326 818.58 349.112 823.638 342.218C824.087 341.62 824.513 341.13 824.62 341.13C824.727 341.13 824.855 341.45 824.94 341.834C825.004 342.197 825.154 342.752 825.26 343.05C825.431 343.541 825.815 344.843 826.669 347.959C828.142 353.189 829.892 358.546 830.596 360.019C831.343 361.555 832.069 362.388 833.414 363.306C834.396 363.946 834.609 364.01 837.576 364.245C843.082 364.693 852.004 364.415 853.199 363.732C853.391 363.647 853.989 363.37 854.544 363.113C855.419 362.751 855.568 362.58 855.697 361.918C855.91 360.787 855.611 357.906 855.142 356.518C854.928 355.857 853.925 353.637 852.943 351.588C851.961 349.539 850.937 347.276 850.702 346.572C850.446 345.868 850.04 344.758 849.806 344.118C849.55 343.477 849.272 342.645 849.165 342.282C849.08 341.898 848.952 341.492 848.867 341.364C848.696 341.108 848.333 339.828 847.671 337.074C847.138 334.919 846.732 333.296 846.391 331.845C846.241 331.247 846.049 330.351 845.964 329.817C845.878 329.284 845.708 328.43 845.58 327.896C845.217 326.381 844.875 324.503 844.683 322.881C844.576 322.048 844.406 321.109 844.278 320.789C844.15 320.447 844.043 319.786 844.043 319.295C844.022 318.804 843.894 317.822 843.723 317.118C843.552 316.414 843.403 315.41 843.403 314.877C843.403 314.343 843.253 313.34 843.082 312.636C842.912 311.931 842.762 310.864 842.762 310.288C842.762 309.69 842.613 308.602 842.442 307.833C842.271 307.065 842.143 305.827 842.122 305.059C842.122 304.29 841.973 302.924 841.802 302.007C841.631 301.089 841.482 299.936 841.482 299.467C841.482 298.997 841.332 298.165 841.162 297.61C840.991 297.076 840.607 295.838 840.308 294.856C839.539 292.338 838.472 290.289 836.829 288.069C835.441 286.234 832.197 282.861 831.834 282.861C831.728 282.861 831.279 282.584 830.853 282.242C829.145 280.876 825.132 278.977 822.272 278.166C819.604 277.419 818.943 277.269 817.47 277.077C816.659 276.992 815.506 276.8 814.909 276.693C813.692 276.458 795.721 276.437 793.779 276.672Z" fill="#82C64A"/>
<path d="M433.177 278.826C432.644 278.912 431.769 278.997 431.235 278.997C430.061 279.018 429.741 279.339 429.058 280.961C428.631 282.028 428.588 282.54 428.524 287.385C428.46 293.34 428.524 293.681 430.104 294.983C430.829 295.581 431.022 295.645 433.156 295.752C434.394 295.816 439.282 295.944 444.02 296.008C450.914 296.115 452.643 296.2 452.749 296.435C452.792 296.584 452.109 297.545 451.191 298.591C448.31 301.877 446.496 305.058 445.3 308.942C443.87 313.552 443.849 314.086 443.849 338.589C443.849 360.338 443.849 360.509 444.297 361.576C444.703 362.536 444.874 362.707 446.154 363.347L447.563 364.03L455.14 364.052C462.205 364.073 462.824 364.052 463.998 363.646C465.321 363.198 466.345 362.365 466.751 361.426C466.922 361.042 467.028 354.447 467.135 339.208C467.242 326.721 467.391 317.095 467.498 316.477C467.626 315.879 467.818 314.79 467.946 314.022C468.949 308.366 472.087 303.457 476.42 300.746C477.444 300.085 481.478 298.014 481.691 298.014C481.905 298.014 485.469 296.264 487.07 295.368L488.351 294.642L488.5 290.736C488.585 288.58 488.585 285.528 488.5 283.991C488.329 281.238 488.308 281.131 487.689 280.491C487.348 280.128 486.729 279.701 486.323 279.509C484.146 278.57 484.616 278.591 458.726 278.613C445.194 278.634 433.711 278.72 433.177 278.826Z" fill="#4094B7"/>
</svg>
