<svg width="1116" height="393" viewBox="0 0 1116 393" fill="none" xmlns="http://www.w3.org/2000/svg">
<path fill-rule="evenodd" clip-rule="evenodd" d="M73.428 208.536C73.5457 208.542 73.6633 208.548 73.781 208.554L73.7715 208.554C73.657 208.548 73.5425 208.542 73.428 208.536ZM135.963 144.016C135.937 144.015 135.912 144.013 135.886 144.012Z" fill="#82C64A"/>
<path d="M140.453 197.608C141.039 200.532 141.669 203.449 143.1 206.258C146.873 213.416 152.762 216.785 160.673 216.596C162.814 216.545 164.966 216.325 167.082 215.989C170.657 215.422 172.7 212.578 172.05 209.166C171.85 208.121 171.49 207.077 171.029 206.117C168.61 201.082 166.769 195.865 165.938 190.328C165.883 189.961 165.826 189.593 165.768 189.226C165.484 187.407 165.198 185.578 165.191 183.754C165.14 171.044 165.137 158.333 165.134 145.623C165.133 140.801 165.131 135.979 165.128 131.157C165.127 130.815 165.128 130.473 165.129 130.13C165.134 128.676 165.139 127.221 165.041 125.774C164.811 122.366 163.401 119.973 159.885 118.793C157.698 118.058 155.472 117.806 153.183 117.807C146.172 117.811 139.162 117.811 132.151 117.811C119.235 117.812 106.32 117.813 93.4045 117.834C91.8625 117.837 90.3001 118.057 88.7839 118.359C86.0433 118.906 83.6809 121.385 83.4052 123.977C82.9368 128.38 82.6339 132.78 83.3503 137.206C83.8971 140.584 86.4464 143.262 89.8987 143.537C92.8153 143.769 95.7473 143.899 98.6732 143.911C106.881 143.945 115.088 143.949 123.296 143.953C127.056 143.955 130.816 143.957 134.575 143.962C135.011 143.962 135.447 143.987 135.886 144.012C136.092 144.024 136.298 144.035 136.505 144.045C136.54 144.177 136.576 144.29 136.608 144.392C136.667 144.578 136.714 144.723 136.714 144.869C136.721 147.403 136.725 149.937 136.729 152.471C136.734 156.1 136.74 159.729 136.755 163.359C136.757 164.037 136.479 164.477 135.955 164.853C134.789 165.689 133.635 166.543 132.485 167.403C124.463 173.403 115.369 176.815 105.575 178.507C103.026 178.948 100.46 179.297 97.8948 179.645C97.6213 179.682 97.3478 179.719 97.0744 179.756C92.6661 180.357 88.2332 180.22 83.8236 179.905C79.8973 179.624 76.0177 178.914 72.1907 177.931C68.3585 176.947 64.5964 175.753 61.1096 173.887C54.7206 170.469 49.1308 166.046 44.4749 160.438C38.4957 153.237 34.922 144.986 33.9302 135.738C33.1675 128.626 33.7481 121.564 35.8917 114.645C38.8819 104.994 44.2119 96.9089 51.9258 90.4725C60.2823 83.4999 69.816 78.9022 80.5703 76.8228C87.0022 75.5792 93.456 74.8532 99.9901 75.172C104.097 75.3724 108.197 75.7507 112.294 76.1289C112.898 76.1847 113.502 76.2404 114.106 76.2956C117.975 76.649 121.78 77.388 125.523 78.4461C126.476 78.7156 127.428 78.9922 128.379 79.2689C131.036 80.0412 133.693 80.8136 136.386 81.4316C139.743 82.2023 142.847 81.441 145.173 78.7402C147.846 75.6366 149.906 72.1534 151.301 68.2716C152.199 65.7752 152.401 63.3195 151.835 60.7077C151.394 58.672 150.323 57.1976 148.625 56.1791C147.196 55.3222 145.707 54.5132 144.153 53.9259C138.011 51.6049 131.738 49.7341 125.295 48.3962C119.298 47.151 113.234 46.6595 107.147 46.4355C102.786 46.275 98.4109 46.3566 94.0453 46.4633C90.6988 46.5451 87.3364 46.6657 84.0193 47.0776C81.6619 47.3703 79.3243 47.8189 76.9862 48.2677C75.6917 48.5162 74.397 48.7647 73.0986 48.9867C66.6605 50.088 60.5159 52.1957 54.4417 54.5006C51.4905 55.6204 48.5538 56.8644 45.7979 58.3905C42.5098 60.2112 39.3761 62.3257 36.2575 64.4341C28.477 69.6941 21.5256 75.8401 15.8952 83.4345C10.1152 91.2307 5.40284 99.5498 2.83223 108.967C2.14281 111.493 1.49267 114.045 1.07453 116.625C0.826302 118.157 0.723725 119.711 0.6211 121.267C0.562494 122.155 0.503873 123.043 0.418103 123.928C-0.394538 132.309 -0.020232 140.627 1.52059 148.91C2.40911 153.686 3.83236 158.282 5.79004 162.713C10.8488 174.162 18.5752 183.582 28.1471 191.5C35.7491 197.789 44.512 201.957 53.931 204.785C58.4986 206.156 63.1516 207.155 67.8596 207.894L67.9683 207.911C69.5823 208.164 71.2055 208.419 72.8331 208.504C73.149 208.521 73.465 208.538 73.781 208.554C77.4658 208.748 81.155 208.943 84.8416 208.93C88.6036 208.918 92.398 208.853 96.1176 208.357C100.537 207.767 104.914 206.793 109.267 205.8C113.625 204.806 117.895 203.502 122.023 201.721C127.606 199.312 132.66 196.04 137.6 192.557C137.91 192.339 138.225 192.129 138.595 191.884C138.784 191.758 138.987 191.623 139.211 191.473C139.295 191.753 139.377 192.007 139.454 192.245C139.608 192.72 139.74 193.128 139.815 193.546C139.925 194.154 140.011 194.767 140.097 195.38C140.201 196.126 140.305 196.871 140.453 197.608Z" fill="#82C64A"/>
<path d="M182.198 176.906C181.457 172.914 181.258 169.087 181.771 165.172C182.26 161.451 183.289 157.948 184.8 154.547C187.262 149.007 191.318 144.863 196.263 141.527C201.479 138.008 207.242 135.773 213.361 134.374C219.33 133.01 225.381 132.472 231.486 132.246C237.721 132.016 243.902 132.424 250.073 133.275C252.896 133.665 255.74 133.902 258.611 134.212C259.216 132.305 258.591 130.542 258.129 128.872C256.694 123.687 253.712 119.587 248.795 117.189C246.935 116.282 244.903 115.634 242.88 115.172C239.028 114.293 235.105 113.705 231.139 114.037C227.512 114.341 223.847 114.582 220.293 115.312C213.985 116.607 207.767 118.342 201.473 119.716C197.765 120.525 194.559 119.852 192.313 116.195C190.773 113.689 189.581 111.023 188.777 108.188C188.068 105.689 188.793 103.575 190.591 101.821C192.582 99.8777 195.002 98.5518 197.469 97.3248C202.152 94.9956 207.131 93.571 212.234 92.5147C221.421 90.6126 230.705 90.0835 240.05 90.6151C247.359 91.0309 254.524 92.1807 261.275 95.2336C272.655 100.38 280.699 108.58 284.444 120.648C285.668 124.593 286.307 128.653 286.299 132.825C286.258 153.466 286.267 174.106 286.298 194.747C286.301 196.779 285.728 198.485 284.339 199.957C283.519 200.826 282.491 201.326 281.376 201.514C276.75 202.296 272.081 202.179 267.424 201.942C266.265 201.883 265.072 201.472 263.997 200.993C262.209 200.197 260.997 198.802 260.726 196.799C260.445 194.728 260.277 192.642 260.046 190.564C259.996 190.114 259.888 189.67 259.752 188.917C259.105 189.435 258.664 189.789 258.222 190.142C255.42 192.378 252.741 194.792 249.789 196.808C245.059 200.039 239.768 202.035 234.149 203.216C226.865 204.747 219.569 204.617 212.218 203.827C206.396 203.202 201.045 201.406 196.219 198.096C190.07 193.878 185.554 188.375 183.196 181.236C182.75 179.885 182.552 178.452 182.198 176.906ZM233.844 152.747C232.477 152.901 231.113 153.146 229.743 153.19C225.178 153.339 220.894 154.58 216.836 156.569C211.185 159.338 207.762 166.394 209.973 172.759C211.474 177.084 214.298 179.958 218.51 181.579C222.97 183.297 227.579 183.72 232.26 182.927C234.896 182.48 237.506 181.816 240.082 181.087C245.214 179.634 249.93 177.408 253.573 173.329C255.626 171.031 257.565 168.589 258.172 165.542C258.801 162.391 258.955 159.146 259.296 155.939C259.325 155.664 259.194 155.372 259.12 154.999C257.447 154.71 255.803 154.447 254.167 154.139C250.173 153.385 246.167 152.748 242.088 152.736C239.455 152.729 236.823 152.73 233.844 152.747Z" fill="#82C64A"/>
<path d="M632.148 174.698C647.943 174.706 663.558 174.709 679.172 174.735C680.056 174.736 680.961 174.841 681.819 175.048C683.892 175.547 685.126 176.984 685.549 178.994C686.003 181.151 686.366 183.343 686.55 185.537C686.858 189.184 686.704 192.824 685.675 196.373C684.78 199.463 682.489 201.294 679.297 201.514C678.642 201.559 677.982 201.554 677.324 201.553C647.83 201.528 618.335 201.507 588.84 201.458C587.477 201.455 586.117 201.171 584.751 201.08C583.281 200.981 582.684 199.958 582.351 198.776C582.061 197.751 581.857 196.665 581.844 195.603C581.795 191.542 581.598 187.48 582.217 183.425C582.543 181.293 583.286 179.411 584.498 177.661C587.476 173.361 591.11 169.629 594.732 165.896C603.605 156.752 612.528 147.657 621.422 138.533C626.432 133.394 631.441 128.254 636.414 123.08C637.647 121.798 638.742 120.384 639.909 119.021C639.314 118.255 638.605 118.526 638.006 118.522C624.964 118.435 611.922 118.369 598.88 118.301C596.547 118.289 594.204 118.414 591.884 118.231C590.497 118.121 589.109 117.637 587.793 117.133C586.53 116.649 585.903 115.468 585.609 114.222C585.295 112.891 585.053 111.516 585.006 110.152C584.867 106.03 584.776 101.907 585.495 97.8109C585.862 95.7203 587.265 94.0778 589.442 93.699C591.081 93.4136 592.759 93.207 594.42 93.2052C621.521 93.1753 648.623 93.1776 675.724 93.2009C677.147 93.2022 678.572 93.4424 679.993 93.5944C681.646 93.7712 682.598 94.8037 682.876 96.3393C683.183 98.033 683.428 99.7645 683.432 101.48C683.44 104.46 683.668 107.448 683.032 110.42C682.595 112.458 681.843 114.319 680.561 115.918C679.217 117.593 677.801 119.228 676.271 120.735C664.423 132.404 652.496 143.993 640.69 155.706C636.447 159.916 632.461 164.386 628.379 168.758C626.829 170.419 625.501 172.246 624.472 174.422C625.741 174.956 626.992 174.63 628.2 174.686C629.454 174.743 630.713 174.698 632.148 174.698Z" fill="#4094B7"/>
<path d="M512.653 201.634C510.055 202.152 507.62 202.791 505.143 203.089C501.336 203.547 497.473 203.535 493.681 203.079C482.245 201.706 472.862 196.609 466.355 186.935C462.846 181.719 460.674 175.891 460.105 169.569C459.848 166.714 459.642 163.844 459.634 160.98C459.572 140.576 459.561 120.172 459.562 99.7678C459.562 98.5856 459.787 97.4008 459.943 96.2218C460.229 94.0456 461.726 93.0329 463.671 92.6482C465.306 92.325 466.982 92.0937 468.646 92.0541C472.354 91.966 476.066 91.9691 479.774 92.0471C481.313 92.0794 482.864 92.3077 484.377 92.6097C486.35 93.0034 487.384 94.1915 487.521 96.2127C487.69 98.7158 487.811 101.228 487.813 103.736C487.828 120.071 487.782 136.406 487.808 152.742C487.814 157.058 488.266 161.315 490.021 165.352C492.499 171.05 496.606 174.887 502.725 176.179C505.271 176.717 507.958 176.839 510.569 176.754C514.338 176.63 518.018 175.909 521.466 174.179C526.29 171.759 530.179 168.283 533.219 163.89C535.248 160.958 535.962 157.549 535.964 154.012C535.975 137.138 535.967 120.265 535.966 103.391C535.966 101.955 535.995 100.518 535.974 99.0827C535.923 95.465 537.898 93.4147 541.728 93.1596C544.172 92.9969 546.633 93.0888 549.086 93.082C551.599 93.0751 554.115 93.0204 556.624 93.1144C558.29 93.1768 559.966 93.3618 561.601 93.6805C563.09 93.9708 563.673 95.2566 563.893 96.5862C564.116 97.9355 564.183 99.3235 564.184 100.695C564.209 130.433 564.22 160.172 564.211 189.91C564.211 191.701 564.183 193.518 563.885 195.275C563.473 197.712 562.518 199.918 559.801 200.64C558.37 201.021 556.911 201.444 555.447 201.521C552.703 201.665 549.947 201.553 547.196 201.581C544.762 201.606 542.484 200.923 540.214 200.161C539.428 199.898 538.929 199.463 538.603 198.649C537.588 196.118 537.12 193.501 537.046 190.791C537.009 189.444 536.929 188.097 536.848 186.294C535.819 187.18 535.128 187.717 534.503 188.322C531.753 190.988 529.032 193.682 525.826 195.819C521.813 198.493 517.519 200.528 512.653 201.634Z" fill="#4094B7"/>
<path d="M307.694 59.9991C307.366 56.5457 307.322 53.2639 307.827 49.9935C308.299 46.9342 309.563 44.2316 313.738 43.5517C314.855 43.3697 315.99 43.2083 317.118 43.195C321.125 43.1481 325.137 43.0591 329.139 43.2103C331.202 43.2883 333.25 43.8206 335.298 44.1853C336.316 44.3666 336.664 45.0508 336.876 46.0636C337.411 48.6106 337.392 51.1719 337.392 53.7416C337.393 99.8046 337.397 145.868 337.372 191.931C337.371 193.463 337.138 195.009 336.878 196.525C336.344 199.637 334.124 200.98 331.288 201.544C330.237 201.754 329.153 201.87 328.081 201.89C323.836 201.967 319.587 202.072 315.343 201.986C313.954 201.957 312.514 201.534 311.207 201.014C309.352 200.275 308.327 198.875 308.293 196.724C308.19 190.088 307.85 183.454 307.841 176.818C307.79 139.071 307.81 101.323 307.8 63.5752C307.799 62.4395 307.739 61.3038 307.694 59.9991Z" fill="#82C64A"/>
<path d="M439 151.686C439.023 166.706 439.029 181.546 439.103 196.385C439.11 197.729 438.703 198.556 437.649 199.383C435.742 200.88 433.498 201.24 431.267 201.466C428.002 201.797 424.708 201.952 421.425 201.965C419.048 201.975 416.644 201.8 414.357 200.997C412.272 200.265 410.607 199.166 410.438 196.66C410.289 194.459 409.874 192.265 409.872 190.067C409.831 144.231 409.831 98.3956 409.833 52.5597C409.833 51.4253 409.978 50.2917 410.009 49.1564C410.065 47.0801 411.149 45.7166 412.901 44.7474C414.795 43.6998 416.87 43.4194 418.959 43.4259C423.622 43.4405 428.288 43.5077 432.945 43.7162C434.468 43.7844 435.965 44.3679 437.479 44.6922C438.201 44.8468 438.416 45.3264 438.467 45.9865C438.64 48.2514 438.881 50.5124 439.001 52.78C439.098 54.6308 439.08 56.4888 439.079 58.3436C439.056 89.398 439.028 120.452 439 151.686Z" fill="#4094B7"/>
<path d="M358.95 136.606C358.947 125.423 358.952 114.419 358.93 103.416C358.925 101.302 359.183 99.2469 359.919 97.2623C360.664 95.2535 362.1 94.0866 364.188 93.5784C369.549 92.2738 374.939 92.1624 380.368 93.0096C381.604 93.2025 382.859 93.3268 384.069 93.6283C386.371 94.2019 387.814 95.6748 388.18 98.0574C388.325 98.9967 388.364 99.9602 388.364 100.913C388.371 128.422 388.365 155.931 388.366 183.441C388.366 186.311 388.453 189.183 388.388 192.052C388.347 193.835 388.15 195.62 387.906 197.389C387.832 197.926 387.442 198.473 387.071 198.907C385.138 201.161 382.478 201.93 379.694 202.026C375.334 202.175 370.961 202.16 366.601 202.001C365.038 201.944 363.435 201.421 361.965 200.828C360.522 200.246 359.595 199.039 359.425 197.39C359.29 196.086 359.028 194.783 359.025 193.478C358.98 174.581 358.969 155.683 358.95 136.606Z" fill="#82C64A"/>
<path d="M388.944 63.2173C389.309 66.7695 388.979 70.0471 387.37 73.1315C385.093 77.497 381.433 79.9228 376.657 80.6535C373.555 81.1282 370.498 80.907 367.501 79.7235C362.922 77.9153 358.239 72.4626 358.285 66.9068C358.312 63.7535 358.557 60.7101 360.105 57.8891C361.639 55.0923 363.993 53.179 366.851 51.9486C371.742 49.8428 376.63 49.9142 381.33 52.5615C385.075 54.6713 387.83 57.6045 388.62 62.025C388.682 62.3763 388.814 62.7155 388.944 63.2173Z" fill="#82C64A"/>
<path d="M407.959 248.924C405.013 249.202 403.242 249.906 402.687 251.037C402.324 251.763 402.303 253.044 402.239 271.335C402.175 291.206 402.217 292.487 402.964 293.981C403.306 294.664 404.608 295.838 405.376 296.137C405.675 296.265 406.23 296.499 406.571 296.649C407.084 296.862 412.035 296.926 429.537 296.99C448.063 297.033 451.927 297.097 452.204 297.353C452.674 297.737 452.695 301.11 452.247 303.244C452.076 304.055 451.927 305.165 451.927 305.677C451.927 306.211 451.799 307.171 451.628 307.812C451.457 308.473 451.222 309.476 451.116 310.074C450.988 310.65 450.753 311.76 450.561 312.528C450.369 313.297 450.112 314.343 450.006 314.855C449.878 315.367 449.707 315.901 449.6 316.029C449.515 316.157 449.365 316.498 449.301 316.797C449.195 317.331 448.704 318.739 448.234 319.871C447.893 320.724 445.545 325.377 444.67 326.935C442.407 330.991 436.196 338.29 432.931 340.745C432.525 341.044 431.992 341.47 431.757 341.705C431.522 341.919 430.796 342.495 430.156 342.986C429.516 343.477 428.278 344.395 427.424 345.056C426.57 345.697 425.461 346.529 424.927 346.892C423.326 348.002 421.683 349.773 421.064 351.075C420.552 352.185 420.487 352.526 420.509 354.661C420.509 356.838 420.573 357.158 421.17 358.481C422.408 361.235 424.436 363.305 427.104 364.543C429.473 365.632 431.522 365.525 434.958 364.073C438.331 362.643 442.493 360.381 446.271 357.905C448.362 356.539 448.49 356.432 450.966 354.405C454.168 351.758 455.598 350.371 458.842 346.678C461.382 343.776 461.019 344.245 462.705 341.876C463.474 340.809 464.178 339.848 464.263 339.742C464.498 339.443 465.202 338.248 465.907 336.967C466.419 336.049 466.803 335.323 468.169 332.805C468.276 332.634 468.553 331.994 468.81 331.418C469.044 330.82 469.471 329.86 469.749 329.283C470.005 328.686 470.304 327.981 470.389 327.682C470.474 327.384 470.624 327.042 470.709 326.935C470.795 326.807 471.072 326.103 471.349 325.335C471.627 324.566 471.904 323.841 471.99 323.734C472.075 323.606 472.31 323.03 472.523 322.453C472.715 321.856 473.014 321.087 473.164 320.746C473.783 319.316 475.042 314.727 475.426 312.55C475.533 311.931 475.725 311.226 475.832 311.013C475.96 310.8 476.045 310.33 476.045 309.967C476.045 309.583 476.173 308.644 476.344 307.854C476.835 305.592 477.134 303.244 477.326 300.192C477.432 298.612 477.624 296.265 477.774 294.963C478.073 292.167 477.881 284.462 477.454 282.114C476.835 278.784 475.426 277.418 471.968 276.82C470.154 276.5 467.721 276.458 449.878 276.458C430.604 276.458 429.772 276.436 428.363 276.031C426.25 275.433 425.567 274.942 424.863 273.47C424.543 272.808 424.5 271.506 424.393 262.157C424.287 252.169 424.265 251.528 423.881 250.952C422.665 249.095 421.811 248.882 415.216 248.818C412.227 248.775 408.962 248.839 407.959 248.924Z" fill="#4094B7"/>
<path d="M532.926 248.902C531.432 249.03 529.533 249.457 528.551 249.862C528.081 250.076 527.463 250.993 527.206 251.89C526.865 253 526.78 266.318 527.036 280.213L527.228 291.995L527.761 293.147C528.466 294.663 529.746 295.751 531.518 296.349L532.926 296.84L555.145 296.882C572.412 296.946 577.428 297.01 577.599 297.224C577.855 297.544 577.343 304.289 576.894 306.444C576.702 307.255 576.574 308.237 576.574 308.6C576.574 308.963 576.425 309.689 576.254 310.179C576.083 310.67 575.934 311.311 575.934 311.588C575.934 311.866 575.806 312.399 575.635 312.783C575.486 313.168 574.995 314.534 574.589 315.835C573.394 319.464 573.223 319.891 571.772 322.794C568.763 328.834 566.97 331.352 561.463 337.265C558.432 340.509 555.85 342.622 549.532 346.997C548.038 348.043 546.416 349.879 545.711 351.33C545.199 352.397 545.135 352.781 545.156 354.574C545.156 356.196 545.263 356.815 545.647 357.669C546.8 360.252 549.724 363.581 551.794 364.648C552.755 365.161 553.182 365.246 554.718 365.246C557.13 365.246 558.774 364.755 562.274 362.984C565.369 361.426 568.741 359.505 568.848 359.227C568.891 359.142 569.019 359.056 569.125 359.056C569.36 359.056 572.903 356.709 573.394 356.239C573.565 356.09 573.992 355.727 574.333 355.471C576.211 354.019 581.91 348.555 584.066 346.122C584.493 345.653 585.859 343.924 587.075 342.28C593.052 334.34 597.641 324.437 599.818 314.875C600.074 313.765 600.415 312.314 600.586 311.673C600.735 311.033 601.034 309.582 601.226 308.472C601.397 307.362 601.653 306.017 601.76 305.484C601.888 304.95 602.059 303.627 602.165 302.56C602.293 301.471 602.421 300.489 602.507 300.383C602.571 300.255 602.699 298.035 602.806 295.41C603.019 289.796 602.806 282.454 602.379 281.237C601.803 279.53 600.522 278.079 598.985 277.353C597 276.456 597.15 276.456 575.507 276.456C556.148 276.456 554.782 276.435 553.075 276.051C550.172 275.411 549.169 274.578 548.806 272.465C548.678 271.739 548.571 267.108 548.529 261.409C548.507 252.061 548.486 251.548 548.081 250.887C547.632 250.118 546.48 249.478 544.986 249.158C543.748 248.88 535.146 248.71 532.926 248.902Z" fill="#82C64A"/>
<path d="M360.294 248.71C358.672 248.817 357.583 248.988 357.285 249.201C356.986 249.393 356.431 250.396 355.833 251.826C354.894 254.046 354.595 254.921 353.891 257.44C353.08 260.321 352.824 261.218 352.674 261.709C352.568 262.007 352.29 262.904 352.055 263.736C351.458 265.743 349.708 271.42 349.366 272.487C349.11 273.32 348.747 274.493 348.107 276.756C347.957 277.332 347.659 278.591 347.466 279.531C347.274 280.47 347.018 281.665 346.89 282.199C346.506 283.778 346.378 286.83 346.698 287.214C347.04 287.62 347.979 288.089 349.579 288.644C351.5 289.327 355.364 289.306 356.836 288.623C357.861 288.132 359.291 286.873 359.291 286.446C359.291 286.339 359.547 285.742 359.846 285.123C360.145 284.525 360.614 283.33 360.892 282.519C361.169 281.686 361.489 280.79 361.596 280.491C361.724 280.192 362.108 278.954 362.492 277.716C362.877 276.478 363.261 275.262 363.367 274.984C363.474 274.728 364.072 272.957 364.712 271.036C365.374 269.136 366.099 267.044 366.334 266.404C366.59 265.764 366.846 265.038 366.911 264.803C366.953 264.569 367.103 264.184 367.209 263.95C367.572 263.117 369.386 257.717 369.877 255.946C370.069 255.305 370.347 254.345 370.518 253.811C371.179 251.72 370.624 249.671 369.237 249.052C368.383 248.646 363.666 248.475 360.294 248.71Z" fill="#4094B7"/>
<path d="M335.493 249.819C334.255 250.268 334.191 250.332 333.422 251.847C332.718 253.234 332.312 254.536 331.224 258.933C330.925 260.15 330.69 261.004 329.73 264.589C328.919 267.641 328.449 269.37 327.681 272.166C327.318 273.511 326.87 275.154 326.699 275.795C326.528 276.435 326.251 277.481 326.08 278.078C324.65 283.372 324.479 284.119 324.351 285.677C324.244 286.979 324.287 287.192 324.799 287.961C325.141 288.494 325.568 288.857 325.952 288.921C326.272 288.985 326.912 289.156 327.382 289.305C329.154 289.839 333.956 289.519 335.557 288.75C336.624 288.238 337.435 287.021 338.481 284.332C338.673 283.799 338.972 283.073 339.121 282.731C339.27 282.369 339.463 281.771 339.527 281.408C339.612 281.024 339.783 280.661 339.889 280.597C339.996 280.512 340.081 280.277 340.081 280.063C340.081 279.829 340.21 279.338 340.38 278.954C340.53 278.569 340.829 277.673 341.021 276.969C341.234 276.264 341.49 275.389 341.618 275.048C341.725 274.685 341.917 274.066 342.002 273.66C342.088 273.255 342.28 272.614 342.387 272.273C343.027 270.48 343.923 267.449 343.923 267.172C343.923 266.98 344.051 266.532 344.222 266.147C344.372 265.763 344.67 264.867 344.884 264.162C345.097 263.458 345.375 262.498 345.524 262.028C345.844 261.068 346.357 259.275 346.783 257.61C346.954 256.991 347.253 255.945 347.424 255.283C347.872 253.704 347.851 252.466 347.36 251.506C346.421 249.67 345.332 249.329 340.444 249.35C337.221 249.35 336.624 249.414 335.493 249.819Z" fill="#4094B7"/>
<path d="M373.382 276.607C370.842 277.055 368.942 278.25 368.067 279.979L367.512 281.046L367.448 320.532C367.384 363.582 367.32 360.957 368.558 362.28C368.857 362.601 369.561 363.027 370.116 363.219C370.671 363.412 371.29 363.646 371.461 363.71C373.232 364.393 385.313 364.329 387.426 363.625C388.92 363.113 390.35 361.768 390.521 360.744C390.585 360.338 390.734 359.335 390.862 358.524C391.14 356.667 390.969 300.853 390.649 287.983C390.414 278.442 390.435 278.634 388.963 277.653C387.49 276.671 385.676 276.457 379.529 276.479C376.434 276.5 373.681 276.564 373.382 276.607Z" fill="#4094B7"/>
<path d="M495.661 276.842C494.124 277.311 493.462 277.76 492.736 278.848L492.16 279.745V299.487V319.252L492.63 320.212C493.227 321.493 494.038 322.197 495.468 322.688C496.493 323.051 497.432 323.094 503.131 323.158C510.302 323.222 510.985 323.136 513.034 321.856C515.169 320.532 515.105 321.322 515.105 299.317C515.105 278.379 515.169 279.211 513.632 277.93C512.116 276.65 511.839 276.607 504.006 276.543C497.752 276.479 496.706 276.522 495.661 276.842Z" fill="#82C64A"/>
<path d="M624.703 276.672C621.566 277.056 620.093 277.974 619.175 280.172C618.898 280.855 618.834 281.901 618.834 286.255V291.527L619.538 292.679C620.072 293.618 620.456 293.981 621.395 294.43C622.526 295.006 622.697 295.027 627.051 295.134C632.366 295.262 637.51 295.625 638.278 295.924C638.598 296.03 639.366 296.201 639.985 296.308C640.626 296.393 641.479 296.607 641.885 296.756C646.666 298.485 648.395 300.171 649.206 303.885C649.398 304.696 649.654 305.912 649.804 306.553C649.932 307.236 650.102 310.224 650.145 313.596L650.252 319.487L649.569 321.152C648.203 324.417 645.577 327.747 641.778 331.013C640.519 332.101 634.308 336.327 633.604 336.583C633.39 336.669 632.835 336.989 632.344 337.33C631.853 337.65 631.405 337.928 631.341 337.928C631.277 337.928 630.509 338.355 629.655 338.888C628.78 339.422 627.99 339.849 627.926 339.849C627.777 339.849 624.234 341.492 623.06 342.111C622.761 342.282 622.356 342.41 622.163 342.41C621.971 342.41 621.651 342.496 621.438 342.624C621.011 342.88 619.431 343.435 618.514 343.669C618.151 343.755 617.66 343.947 617.404 344.075C617.148 344.224 616.699 344.331 616.401 344.331C616.102 344.331 615.824 344.416 615.739 344.523C615.675 344.63 615.312 344.801 614.928 344.886C614.266 345.014 613.562 345.292 612.004 346.017C610.958 346.508 609.677 347.703 609.187 348.685C608.525 349.966 608.119 353.722 608.375 356.006C608.482 357.052 608.589 358.546 608.589 359.336C608.589 361.299 609.272 362.644 610.787 363.647C611.598 364.159 617.19 364.415 622.142 364.159C624.383 364.031 626.496 363.861 626.838 363.754C627.201 363.647 627.969 363.498 628.545 363.412C629.143 363.348 629.719 363.199 629.826 363.113C629.954 363.028 630.359 362.879 630.765 362.793C631.512 362.644 635.61 360.595 637.083 359.656C642.269 356.326 649.505 349.112 654.563 342.218C655.011 341.62 655.438 341.13 655.545 341.13C655.652 341.13 655.78 341.45 655.865 341.834C655.929 342.197 656.079 342.752 656.185 343.05C656.356 343.541 656.74 344.843 657.594 347.959C659.067 353.189 660.817 358.546 661.521 360.019C662.268 361.555 662.994 362.388 664.339 363.306C665.32 363.946 665.534 364.01 668.501 364.245C674.007 364.693 682.929 364.415 684.124 363.732C684.316 363.647 684.914 363.37 685.469 363.113C686.344 362.751 686.493 362.58 686.621 361.918C686.835 360.787 686.536 357.906 686.066 356.518C685.853 355.857 684.85 353.637 683.868 351.588C682.886 349.539 681.862 347.276 681.627 346.572C681.371 345.868 680.965 344.758 680.731 344.118C680.474 343.477 680.197 342.645 680.09 342.282C680.005 341.898 679.877 341.492 679.791 341.364C679.621 341.108 679.258 339.828 678.596 337.074C678.063 334.919 677.657 333.296 677.316 331.845C677.166 331.247 676.974 330.351 676.889 329.817C676.803 329.284 676.633 328.43 676.504 327.896C676.142 326.381 675.8 324.503 675.608 322.881C675.501 322.048 675.331 321.109 675.202 320.789C675.074 320.447 674.968 319.786 674.968 319.295C674.946 318.804 674.818 317.822 674.648 317.118C674.477 316.414 674.327 315.41 674.327 314.877C674.327 314.343 674.178 313.34 674.007 312.636C673.836 311.931 673.687 310.864 673.687 310.288C673.687 309.69 673.538 308.602 673.367 307.833C673.196 307.065 673.068 305.827 673.047 305.059C673.047 304.29 672.897 302.924 672.727 302.007C672.556 301.089 672.406 299.936 672.406 299.467C672.406 298.997 672.257 298.165 672.086 297.61C671.916 297.076 671.531 295.838 671.233 294.856C670.464 292.338 669.397 290.289 667.754 288.069C666.366 286.234 663.122 282.861 662.759 282.861C662.652 282.861 662.204 282.584 661.777 282.242C660.07 280.876 656.057 278.977 653.197 278.166C650.529 277.419 649.868 277.269 648.395 277.077C647.584 276.992 646.431 276.8 645.834 276.693C644.617 276.458 626.646 276.437 624.703 276.672Z" fill="#82C64A"/>
<path d="M264.102 278.826C263.568 278.912 262.693 278.997 262.16 278.997C260.986 279.018 260.666 279.339 259.983 280.961C259.556 282.028 259.513 282.54 259.449 287.385C259.385 293.34 259.449 293.681 261.029 294.983C261.754 295.581 261.946 295.645 264.081 295.752C265.319 295.816 270.206 295.944 274.945 296.008C281.839 296.115 283.568 296.2 283.674 296.435C283.717 296.584 283.034 297.545 282.116 298.591C279.235 301.877 277.421 305.058 276.225 308.942C274.795 313.552 274.774 314.086 274.774 338.589C274.774 360.338 274.774 360.509 275.222 361.576C275.628 362.536 275.798 362.707 277.079 363.347L278.488 364.03L286.065 364.052C293.129 364.073 293.748 364.052 294.922 363.646C296.246 363.198 297.27 362.365 297.676 361.426C297.846 361.042 297.953 354.447 298.06 339.208C298.167 326.721 298.316 317.095 298.423 316.477C298.551 315.879 298.743 314.79 298.871 314.022C299.874 308.366 303.012 303.457 307.344 300.746C308.369 300.085 312.403 298.014 312.616 298.014C312.83 298.014 316.394 296.264 317.995 295.368L319.275 294.642L319.425 290.736C319.51 288.58 319.51 285.528 319.425 283.991C319.254 281.238 319.233 281.131 318.614 280.491C318.272 280.128 317.653 279.701 317.248 279.509C315.071 278.57 315.54 278.591 289.65 278.613C276.119 278.634 264.636 278.72 264.102 278.826Z" fill="#4094B7"/>
<path d="M1022.44 0C1044.05 0 1044.05 24.9717 1044.05 24.9717V68.9156C1044.05 68.9156 1044.05 93.8875 1022.44 93.8875C1000.83 93.8875 1000.83 68.9156 1000.83 68.9156C1000.83 58.472 1000.83 35.4152 1000.83 24.9717C1000.83 24.9717 1000.83 0 1022.44 0Z" fill="#4094B7"/>
<path d="M793.142 43.9539H815.611V72.6586C815.611 72.6586 815.603 105.5 847.954 105.5C880.304 105.5 880.304 72.6584 880.304 72.6584V43.9437L989.599 44.0223V72.6586C989.599 72.6586 989.6 105.116 1022.44 105.116C1055.28 105.116 1055.28 72.6586 1055.28 72.6586V44.0223L1077.75 43.9437C1103.97 43.9437 1115.2 65.1726 1115.2 91.5329V130.54L755.731 130.145L755.733 91.3734C755.733 65.1726 766.928 43.9539 793.142 43.9539Z" fill="#0A9648"/>
<path d="M878.087 146.286C881.498 144.959 884.675 142.915 888.328 142.274C892.539 141.851 897.029 141.874 900.824 143.993C904.092 145.555 906.454 148.345 909.073 150.744C911.359 150.857 913.314 149.205 915.585 149.054C918.415 148.888 921.411 148.73 924.06 149.929C928.044 151.611 931.862 153.648 935.621 155.775C935.681 156.212 935.794 157.087 935.854 157.525C930.134 157.675 923.977 155.873 918.626 158.648C913.683 161.401 909.314 165.384 903.775 166.938C900.387 167.533 896.923 167.239 893.512 167.104C894.214 163.46 898.447 161.567 898.651 157.758C898.93 155.141 896.357 153.61 894.433 152.441C889.452 149.446 883.687 148.383 878.019 147.599C878.035 147.267 878.065 146.611 878.087 146.286Z" fill="#0A9649"/>
<path fill-rule="evenodd" clip-rule="evenodd" d="M1013.62 145.791C1020.04 145.158 1026.35 147.432 1031.72 150.773C1039.57 155.774 1046.04 162.535 1053.13 168.501C1063.07 177.453 1073.35 186.021 1083.41 194.83C1093.7 203.579 1103.07 211.925 1115.2 218.103V311.677C1115.2 311.677 1102.09 300.05 1088.7 295.024C1066.9 286.848 1043.82 283.159 1021.46 276.959C1017.55 275.692 1012.16 273.919 1011.78 269.123C1012.95 266.559 1015.88 265.389 1017.96 263.632C1022.42 260.208 1027.09 255.509 1026.98 249.483C1027.19 244.785 1023.96 240.871 1020.56 238.02C1011.78 230.885 1000.84 227.34 990.276 223.765C972.754 218.146 954.619 214.638 937.127 208.906C931.611 206.923 926.056 204.848 921.091 201.68C921.091 200.91 921.098 200.139 921.106 199.37C932.183 195.138 942.77 189.694 952.889 183.524C962.254 177.89 971.795 172.473 980.519 165.851C986.382 161.401 992.246 156.945 998.102 152.488C1002.62 149.056 1007.86 146.199 1013.62 145.791ZM1017.4 151.815C1015.15 151.612 1013.19 152.37 1011.45 153.467C1009.71 154.563 1008.13 156.037 1006.7 157.265C998.575 164.252 991.058 170.088 983.298 177.087L979.956 180.165L979.912 180.209C979.895 180.227 979.871 180.254 979.842 180.286C979.783 180.35 979.699 180.441 979.601 180.56C979.405 180.799 979.144 181.148 978.869 181.591C978.321 182.473 977.712 183.752 977.502 185.319L977.381 186.203L978.255 186.013C981.434 185.313 984.28 183.858 987.01 182.292C989.757 180.717 992.354 179.045 995.154 177.804L995.158 177.807C996.156 177.409 997.153 176.899 998.164 176.682C999.128 176.475 999.919 176.579 1000.54 177.27L1000.56 177.288L1000.59 177.307C1001.69 178.326 1003.05 179.655 1004.52 181.079C1005.98 182.501 1007.54 184.018 1009.02 185.407C1010.49 186.793 1011.9 188.063 1013.07 188.989C1013.65 189.451 1014.18 189.84 1014.64 190.115C1014.87 190.252 1015.09 190.371 1015.3 190.455C1015.5 190.535 1015.73 190.601 1015.96 190.601C1016.81 190.601 1017.32 189.945 1017.63 189.296C1017.95 188.622 1018.18 187.704 1018.39 186.708C1018.82 184.671 1019.17 182.187 1019.88 179.884C1020.27 179.073 1021.06 178.679 1021.94 178.681C1022.84 178.683 1023.76 179.111 1024.28 179.843L1024.31 179.887C1030.01 186.545 1036.57 192.423 1042.78 198.478L1042.81 198.496C1044.09 199.63 1045.5 201.081 1047.03 202.159C1048.6 203.258 1050.4 204.052 1052.56 203.869L1053.14 203.822L1053.13 203.241C1053.1 200.412 1052.77 197.386 1051.39 194.738L1051.1 194.216C1050.75 193.612 1050.37 193.023 1049.99 192.45C1049.61 191.872 1049.24 191.307 1048.9 190.732C1048.32 189.746 1047.85 188.756 1047.62 187.684C1048.94 187.356 1050.22 187.352 1051.35 187.984L1051.4 188.006C1057.7 190.912 1063.99 193.974 1070.35 196.829C1072.01 197.637 1073.83 197.799 1075.52 197.86L1076.84 197.908L1076.04 196.859C1072.64 192.39 1067.95 189.111 1063.72 185.739L1063.71 185.732C1051.01 175.859 1038.32 165.962 1025.99 155.66L1025.95 155.635L1024.1 154.271C1023.45 153.808 1022.78 153.354 1022.09 152.97C1020.69 152.201 1019.14 151.67 1017.4 151.815Z" fill="#4094B7"/>
<path d="M827.18 167.489C833.262 163.974 840.741 162.609 847.585 164.411C852.271 165.882 856.384 168.643 860.52 171.215C868.564 176.638 876.299 182.528 883.543 188.992C898.327 200.457 913.382 211.605 928.882 222.104C936.413 227.15 944.706 230.883 952.532 235.432C956.35 237.46 960.418 239.844 962.312 243.939C963.165 245.523 962.055 247.311 960.848 248.352C958.312 250.449 955.098 251.437 952.072 252.583C943.099 255.977 933.719 258.097 924.671 261.227C921.252 262.592 917.766 264.108 915.087 266.703C912.906 268.596 913.125 271.749 912.846 274.366C904.296 270.753 894.999 269.388 885.883 268.015C888.403 265.571 892.524 264.591 893.822 261.069C895.074 257.207 891.716 254.318 889.49 251.686C887.966 249.966 886.751 248.005 885.596 246.036C887.43 243.412 889.95 240.085 887.611 236.933C883.362 231.841 879.657 226.328 876.042 220.769C874.307 218.001 872.948 214.705 869.99 213C867.047 211.665 863.282 212.646 861.636 215.519C858.459 220.686 854.928 225.641 852.053 230.989C846.355 220.92 836.612 204.569 834.538 201.015C832.463 197.462 826.846 195.59 823.339 199.099C819.832 202.609 815.128 212.932 810.654 219.622C809.046 222.285 807.099 224.766 805.899 227.648C805.077 230.122 806.428 232.573 807.341 234.813C805.499 237.574 802.979 239.814 801.183 242.597C800.134 245.931 802.096 248.925 804.164 251.346C802.088 254.212 799.017 256.347 797.546 259.628C796.798 263.859 800.949 266.612 804.481 267.683C793.878 268.573 783.306 270.112 772.997 272.827C767.217 274.464 761.511 278.291 755.693 279.807V234.891C766.092 228.714 772.545 223.662 781.208 210.587C789.397 199.333 794.874 194.604 802.353 187.212C809.718 179.617 817.875 172.603 827.18 167.489Z" fill="#82C64A"/>
<path fill-rule="evenodd" clip-rule="evenodd" d="M827.973 204.673C828.742 205.375 829.308 206.265 829.798 207.185C833.76 214.682 838.529 221.712 842.996 228.908C840.529 229.172 838.047 229.135 835.572 229.24C837.92 234.828 843.276 238.253 847.034 242.801C847.268 243.465 847.464 244.144 847.637 244.83C844.853 245.003 842.069 244.951 839.292 245.057C840.929 249.589 844.58 252.976 846.964 257.101C850.496 253.97 853.75 250.5 856.648 246.782C857.666 245.56 858.157 244.046 858.565 242.545C856.663 242.274 854.768 242.025 852.874 241.708C853.372 240.027 854.233 238.495 855.387 237.183C859.869 231.843 862.928 225.491 867.199 219.993C871.696 226.946 876.698 233.539 881.429 240.327C879.052 240.937 876.592 241.043 874.162 241.277C875.596 244.648 878.193 247.31 880.328 250.236C882.464 253.215 885.475 255.601 886.856 259.085C882.275 260.594 877.422 260.467 872.743 261.432C872.087 266.454 872.132 271.583 872.75 276.605C884.938 278.77 897.324 279.986 909.285 283.298C915.465 284.904 921.675 286.547 927.508 289.186C934.043 292.022 940.723 295.121 945.779 300.265C948.888 303.207 949 308.346 946.759 311.83C944.481 315.36 940.73 317.508 937.214 319.627C927.819 324.914 917.636 328.62 907.478 332.143C877.754 342.174 847.328 350.123 816.457 355.697C802.194 357.945 768.246 362.137 757.403 362.152C757.118 361.852 755.907 356.636 755.691 349.583C755.691 349.583 755.741 308.703 755.767 295.766C755.473 293.926 757.103 292.853 758.258 291.745C764.664 285.696 773.29 282.903 781.575 280.512C795.853 277.028 810.517 275.34 825.157 274.291C825.248 270.686 825.813 266.898 824.952 263.406C818.878 262.983 812.826 261.995 806.857 260.69C807.046 257.84 809.696 256.293 811.333 254.264C813.544 251.474 816.344 249.007 817.536 245.561C814.261 245.289 810.841 245.947 807.716 244.68C811.783 239.386 818.296 235.802 820.681 229.339C818.251 229.135 815.814 229.162 813.385 229.079C814.917 225.346 817.708 222.343 819.708 218.867C822.756 214.304 825.075 209.304 827.973 204.673ZM855.185 260.226C852.606 260.055 849.968 260.133 847.41 261.227C843.248 261.648 839.207 262.307 835.086 262.426L834.512 262.444L834.479 263.015C834.267 266.738 834.185 270.499 834.49 274.244L834.537 274.814H835.108C837.454 274.821 839.786 274.814 842.115 274.807H849.978C851.949 274.838 853.913 275.106 855.931 275.355C858.221 275.637 860.572 275.89 862.964 275.687L863.531 275.64L863.535 275.07C863.565 270.523 863.642 265.951 863.498 261.388L863.48 260.774L862.865 260.785C861.624 260.805 860.362 260.71 859.077 260.588C857.802 260.466 856.484 260.312 855.185 260.226Z" fill="#0A9648"/>
<path d="M954.07 222.684C960.801 224.011 967.193 226.613 973.713 228.703C983.146 232.587 993.175 235.974 1000.86 242.958C1003.84 245.628 1006.16 250.071 1004.18 253.993C1002.03 258.013 997.884 260.389 994.156 262.757C990.209 265.306 985.243 266.619 982.315 270.511C980.308 273.105 980.957 277.118 983.674 278.951C986.994 281.236 990.918 282.42 994.676 283.808C1007.07 287.806 1019.76 290.777 1032.17 294.722C1047.43 300.002 1063.03 305.621 1075.63 316.052C1081.47 320.736 1086.28 327.374 1087.07 334.984C1087.7 341.75 1084.18 349.438 1079.9 352.988C1075.63 356.538 1072.13 360.281 1049.61 364.353C1055.28 360.281 1058.49 357.722 1061.15 351.608C1064.26 344.472 1063.4 335.949 1059.25 329.41C1053.84 320.804 1045.43 314.468 1036.45 309.928C1031.4 306.881 1025.93 304.671 1020.33 302.838C1023.61 305.659 1027.62 307.424 1031 310.124C1037.52 315.26 1043.12 321.837 1046.12 329.651C1048.54 335.951 1047.79 339.694 1046.77 343.394C1041.53 361.492 1018.49 397.425 931.737 391.811C991.655 382.453 1019.19 329.908 993.68 304.429C968.172 278.951 935.445 281.678 936.404 273.256C937.4 270.752 939.905 269.327 942.214 268.203C949.512 264.884 957.141 262.38 964.672 259.627C970.792 257.394 977.078 255.011 982.066 250.681C983.878 249.173 985.274 246.955 985.176 244.534C984.791 241.449 982.482 239.089 980.104 237.301C972.098 231.305 962.854 227.337 954.07 222.684Z" fill="#82DCDB"/>
<path d="M963.987 296.489C1021.58 334.08 963.987 378.996 845.568 365.897C845.568 365.897 991.618 349.052 963.987 296.489Z" fill="#82DCDB"/>
<path d="M781.941 371.553C786.221 374.691 790.252 377.124 796.885 377.124H948.593C933.734 384.677 913.476 390.224 894.359 392.096H796.885C777.376 392.096 765.963 381.539 761.683 372.716C769.335 372.649 775.75 371.898 781.941 371.553Z" fill="#4094B7"/>
<path d="M1100.22 313.731C1108.95 319.426 1115.2 324.723 1115.2 324.723V347.18C1115.2 350.025 1115.01 352.777 1114.67 355.427L1114.55 356.275C1111.45 377.712 1097.09 392.096 1074.01 392.096H1005.31C1020.13 388.678 1030.27 383.575 1038 377.124H1074.01C1088.98 377.124 1100.22 362.151 1100.22 347.18V313.731Z" fill="#4094B7"/>
<path d="M770.671 212.503C766.155 216.039 761.309 219.167 755.691 222.504V145.06H770.671V212.503Z" fill="#4094B7"/>
<path d="M1115.2 202.341C1109.93 199.659 1104.98 196.659 1100.22 193.437V145.06H1115.2V202.341Z" fill="#4094B7"/>
<path d="M847.954 0C869.561 0 869.56 24.9717 869.56 24.9717V68.9156C869.56 68.9156 869.564 93.8875 847.954 93.8875C826.346 93.8875 826.346 68.9156 826.346 68.9156C826.346 58.472 826.346 35.4152 826.346 24.9717C826.346 24.9717 826.346 0 847.954 0Z" fill="#4094B7"/>
</svg>
