<svg viewBox="12 12 615 696" preserveAspectRatio="xMidYMid meet" fill="none" xmlns="http://www.w3.org/2000/svg">
<path class="AreaFilterMap-regionShape AreaFilterMap-regionShape--center" d="M270.403 79.9272C273.204 79.8701 275.493 81.1575 277.155 82.9058C278.785 84.6197 279.906 86.8523 280.581 89.0972C281.528 92.2448 282.716 95.3493 283.984 98.5249C285.239 101.665 286.593 104.925 287.788 108.21C291.763 119.143 299.826 125.663 310.736 130.41C318.701 133.874 326.306 138.227 333.53 142.852C335.192 143.916 336.569 144.446 337.814 144.613C339.028 144.775 340.32 144.618 341.87 143.984C344.089 143.075 346.18 142.06 348.538 141C350.826 139.973 353.259 138.957 355.829 138.24C360.314 136.988 365.09 136.621 369.568 136.69C376.748 136.801 383.981 137.235 391.144 138.142C392.023 138.253 393.15 138.307 394.564 138.387C395.909 138.463 397.453 138.56 398.919 138.774C400.348 138.982 401.952 139.333 403.322 140.036C404.654 140.719 406.054 141.901 406.563 143.817L406.653 144.21L406.69 144.433C406.851 145.541 406.619 146.574 406.322 147.394C405.998 148.288 405.514 149.157 404.984 149.96C403.928 151.564 402.456 153.266 400.932 154.895C399.393 156.538 397.691 158.222 396.14 159.768C394.559 161.343 393.154 162.759 392.098 163.958C387.542 169.129 385.382 174.73 385.308 181.754C385.086 202.543 387.738 222.966 392.077 243.375C394.738 255.893 393.05 268.338 391.165 280.351C390.439 284.98 388.778 289.143 387.224 292.944C385.631 296.84 384.168 300.317 383.439 304.018C382.574 308.411 381.992 312.876 381.396 317.456C380.805 322.002 380.2 326.663 379.29 331.28C374.478 355.701 369.506 380.105 364.196 404.437C361.779 415.516 358.379 426.506 355.267 438.123L354.626 440.515L352.155 440.339C346.287 439.921 340.226 439.32 334.068 439.094C330.89 438.978 327.696 438.981 324.442 438.991C321.207 439.001 317.905 439.019 314.602 438.927C308.002 438.744 301.245 438.559 294.533 437.853C289.916 437.367 285.808 435.549 282.502 431.237L282.185 430.812C281.221 429.487 279.811 428.322 277.955 427.044C276.41 425.981 274.201 424.62 272.304 423.25C266.186 421.46 260.429 419.823 254.637 418.381C253.125 418.005 251.477 417.984 249.366 417.916C238.55 417.566 227.344 417.617 216.328 416.781C210.179 416.314 204.077 414.73 198.409 412.834C192.834 410.97 188.638 406.285 188.484 399.765C188.265 390.441 188.128 381.116 187.99 371.808C187.853 362.495 187.714 353.198 187.49 343.905C187.435 341.624 187.641 338.903 189.371 336.965C191.286 334.82 194.114 334.591 196.816 334.969C198.917 335.263 201.163 335.14 203.697 334.978L204.512 334.912C208.496 334.509 211.221 333.053 212.793 329.694C215.998 322.844 219.427 316.904 221.665 310.309C221.94 309.499 221.941 308.353 221.66 306.625C221.523 305.785 221.344 304.936 221.151 303.977C220.966 303.053 220.77 302.039 220.646 301.027C220.524 300.035 220.259 299.171 219.938 297.739C219.658 296.493 219.355 294.853 219.617 293.141C222.429 274.799 225.675 256.953 228.317 238.715C230.114 226.315 230.938 214.17 232.479 201.474C234.644 183.648 236.996 165.842 239.305 148.06C239.936 143.199 240.572 138.202 241.541 133.26C241.748 132.204 242.145 130.936 242.72 129.8C243.208 128.835 244.186 127.225 245.912 126.542L246.342 126.368C255.249 122.646 257.707 115.202 259.715 105.111C260.474 101.296 261.566 95.4774 262.921 90.6245C263.594 88.2139 264.377 85.8679 265.291 84.0669C265.744 83.174 266.307 82.2578 267.019 81.522C267.718 80.7991 268.853 79.959 270.403 79.9272Z" fill="#B4DAC5" stroke="#82C64A" stroke-width="6"/>
<circle class="AreaFilterMap-regionCity AreaFilterMap-regionCity--center" cx="272.421" cy="173.999" r="4" fill="black"/>
<path class="AreaFilterMap-regionCity AreaFilterMap-regionCity--center" d="M258.484 200.999V194.015C258.484 193.475 258.352 193.073 258.088 192.809C257.824 192.533 257.44 192.395 256.936 192.395H251.914V190.145H257.08C258.448 190.145 259.48 190.469 260.176 191.117C260.872 191.753 261.22 192.701 261.22 193.961V200.999H258.484ZM249.988 200.999L250.276 198.749H250.924C251.152 198.749 251.338 198.707 251.482 198.623C251.626 198.527 251.734 198.389 251.806 198.209C251.878 198.029 251.914 197.807 251.914 197.543V190.667H254.65V197.471C254.65 198.623 254.38 199.499 253.84 200.099C253.312 200.699 252.526 200.999 251.482 200.999H249.988ZM250.258 192.395L250.564 190.145H253.444V192.395H250.258ZM264.121 196.427V190.145H266.857V196.427H264.121ZM262.645 192.395L262.951 190.145H265.651V192.395H262.645ZM270.098 196.427V190.145H272.834V196.427H270.098ZM268.622 192.395L268.928 190.145H271.628V192.395H268.622ZM279.836 200.999V194.015C279.836 193.475 279.704 193.073 279.44 192.809C279.176 192.533 278.792 192.395 278.288 192.395H274.616L274.904 190.145H278.432C279.8 190.145 280.832 190.469 281.528 191.117C282.224 191.753 282.572 192.701 282.572 193.961V200.999H279.836ZM289.43 200.999L291.932 192.377H284.552L284.84 190.145H295.028L294.848 191.765L292.166 200.999H289.43ZM284.984 204.311V194.681L287.72 194.519V204.167L284.984 204.311ZM254.478 224.999V218.015C254.478 217.475 254.34 217.073 254.064 216.809C253.8 216.533 253.422 216.395 252.93 216.395H247.332L247.638 214.145H253.074C254.442 214.145 255.474 214.469 256.17 215.117C256.866 215.753 257.214 216.701 257.214 217.961V224.999H254.478ZM247.566 224.999V219.149L250.302 219.005V224.999H247.566ZM261.682 224.999V217.565C261.682 217.265 261.64 217.031 261.556 216.863C261.472 216.695 261.334 216.575 261.142 216.503C260.962 216.431 260.722 216.395 260.422 216.395H259.414L259.702 214.145H261.16C262.264 214.145 263.08 214.415 263.608 214.955C264.148 215.483 264.418 216.263 264.418 217.295V224.999H261.682ZM258.982 224.999V222.749H262.996V224.999H258.982ZM267.663 224.999V214.145H270.399V224.999H267.663ZM266.187 216.395L266.493 214.145H269.463V216.395H266.187ZM272.539 224.999L273.745 218.627L272.233 214.145H274.969L275.653 216.611H275.725C275.893 216.179 276.085 215.801 276.301 215.477C276.517 215.141 276.775 214.865 277.075 214.649C277.375 214.421 277.717 214.253 278.101 214.145C278.497 214.025 278.953 213.965 279.469 213.965C280.321 213.965 281.065 214.175 281.701 214.595C282.349 215.003 282.853 215.603 283.213 216.395C283.585 217.175 283.771 218.123 283.771 219.239V219.491C283.771 220.583 283.573 221.543 283.177 222.371C282.793 223.199 282.229 223.847 281.485 224.315C280.741 224.771 279.841 224.999 278.785 224.999H277.057L277.381 222.749H278.659C279.403 222.749 279.985 222.443 280.405 221.831C280.825 221.219 281.035 220.439 281.035 219.491V219.239C281.035 218.591 280.939 218.045 280.747 217.601C280.555 217.157 280.297 216.827 279.973 216.611C279.661 216.383 279.307 216.269 278.911 216.269C278.479 216.269 278.119 216.335 277.831 216.467C277.543 216.587 277.303 216.773 277.111 217.025C276.931 217.277 276.781 217.577 276.661 217.925C276.541 218.273 276.451 218.663 276.391 219.095L275.365 224.999H272.539ZM291.334 225.125C290.086 225.125 289.012 224.879 288.112 224.387C287.212 223.895 286.522 223.163 286.042 222.191C285.562 221.219 285.322 219.995 285.322 218.519V214.145H288.04V218.501C288.04 219.545 288.166 220.397 288.418 221.057C288.67 221.705 289.036 222.185 289.516 222.497C290.008 222.797 290.596 222.947 291.28 222.947H291.352C292.06 222.935 292.654 222.779 293.134 222.479C293.626 222.179 293.998 221.705 294.25 221.057C294.502 220.397 294.628 219.551 294.628 218.519V214.145H297.364V218.537C297.364 220.013 297.124 221.237 296.644 222.209C296.164 223.169 295.48 223.895 294.592 224.387C293.716 224.867 292.66 225.113 291.424 225.125H291.334ZM287.266 220.733L287.122 218.897C287.902 218.945 288.496 218.855 288.904 218.627C289.312 218.387 289.594 218.015 289.75 217.511C289.918 217.007 290.002 216.389 290.002 215.657V214.145H292.72V215.531C292.72 216.335 292.624 217.067 292.432 217.727C292.252 218.387 291.952 218.945 291.532 219.401C291.112 219.857 290.554 220.205 289.858 220.445C289.162 220.673 288.298 220.769 287.266 220.733Z" fill="black"/>
<path class="AreaFilterMap-regionCity AreaFilterMap-regionCity--center" d="M299.371 392.311V378.145H302.107V392.167L299.371 392.311ZM297.913 380.395L298.201 378.145H301.171V380.395H297.913ZM305.733 388.999V378.145H308.469V388.999H305.733ZM304.257 380.395L304.563 378.145H307.533V380.395H304.257ZM310.609 388.999L311.815 382.627L310.303 378.145H313.039L313.723 380.611H313.795C313.963 380.179 314.155 379.801 314.371 379.477C314.587 379.141 314.845 378.865 315.145 378.649C315.445 378.421 315.787 378.253 316.171 378.145C316.567 378.025 317.023 377.965 317.539 377.965C318.391 377.965 319.135 378.175 319.771 378.595C320.419 379.003 320.923 379.603 321.283 380.395C321.655 381.175 321.841 382.123 321.841 383.239V383.491C321.841 384.583 321.643 385.543 321.247 386.371C320.863 387.199 320.299 387.847 319.555 388.315C318.811 388.771 317.911 388.999 316.855 388.999H315.127L315.451 386.749H316.729C317.473 386.749 318.055 386.443 318.475 385.831C318.895 385.219 319.105 384.439 319.105 383.491V383.239C319.105 382.591 319.009 382.045 318.817 381.601C318.625 381.157 318.367 380.827 318.043 380.611C317.731 380.383 317.377 380.269 316.981 380.269C316.549 380.269 316.189 380.335 315.901 380.467C315.613 380.587 315.373 380.773 315.181 381.025C315.001 381.277 314.851 381.577 314.731 381.925C314.611 382.273 314.521 382.663 314.461 383.095L313.435 388.999H310.609ZM326.621 389.089L326.117 386.767H325.919C325.715 387.175 325.511 387.523 325.307 387.811C325.115 388.099 324.899 388.333 324.659 388.513C324.431 388.681 324.173 388.807 323.885 388.891C323.597 388.963 323.255 388.999 322.859 388.999H322.427V386.695H322.859C323.207 386.683 323.531 386.629 323.831 386.533C324.131 386.437 324.401 386.311 324.641 386.155C324.893 385.999 325.109 385.837 325.289 385.669C325.469 385.489 325.607 385.321 325.703 385.165V381.583C325.703 381.139 325.595 380.833 325.379 380.665C325.175 380.497 324.821 380.413 324.317 380.413H323.255L323.543 378.145H325.055C325.835 378.145 326.471 378.271 326.963 378.523C327.467 378.763 327.839 379.117 328.079 379.585C328.319 380.053 328.439 380.629 328.439 381.313V385.831L329.051 388.657L326.621 389.089ZM337.999 388.999C337.471 388.087 336.955 387.241 336.451 386.461C335.959 385.669 335.455 384.913 334.939 384.193C334.435 383.461 333.895 382.747 333.319 382.051C333.079 381.751 332.809 381.415 332.509 381.043C332.221 380.659 331.927 380.281 331.627 379.909C331.339 379.537 331.075 379.195 330.835 378.883C330.595 378.571 330.397 378.325 330.241 378.145H333.589C333.817 378.421 334.069 378.751 334.345 379.135C334.621 379.507 334.897 379.885 335.173 380.269C335.461 380.653 335.713 381.001 335.929 381.313C336.481 382.141 337.051 382.975 337.639 383.815C338.227 384.643 338.821 385.489 339.421 386.353C340.021 387.205 340.603 388.087 341.167 388.999H337.999ZM329.935 388.999L330.367 386.101C330.475 385.441 330.637 384.823 330.853 384.247C331.069 383.659 331.405 383.137 331.861 382.681C332.317 382.225 332.947 381.883 333.751 381.655L334.561 383.419C334.201 383.551 333.925 383.761 333.733 384.049C333.541 384.337 333.403 384.673 333.319 385.057C333.235 385.429 333.157 385.831 333.085 386.263L332.671 388.999H329.935ZM337.333 384.607L336.523 382.843C336.943 382.699 337.255 382.483 337.459 382.195C337.675 381.907 337.831 381.571 337.927 381.187C338.035 380.803 338.107 380.407 338.143 379.999L338.377 378.145H341.095L340.879 380.161C340.819 380.809 340.663 381.427 340.411 382.015C340.171 382.603 339.799 383.119 339.295 383.563C338.791 384.007 338.137 384.355 337.333 384.607ZM301.417 412.999V406.015C301.417 405.475 301.279 405.073 301.003 404.809C300.739 404.533 300.361 404.395 299.869 404.395H294.271L294.577 402.145H300.013C301.381 402.145 302.413 402.469 303.109 403.117C303.805 403.753 304.153 404.701 304.153 405.961V412.999H301.417ZM294.505 412.999V407.149L297.241 407.005V412.999H294.505ZM308.404 402.145H314.686L314.488 403.747L311.248 412.999H308.404L311.482 404.395H305.668V399.607L308.404 399.319V402.145ZM317.326 412.999V402.145H320.062V412.999H317.326ZM315.85 404.395L316.156 402.145H319.126V404.395H315.85ZM328.394 402.145C329.762 402.145 330.794 402.469 331.49 403.117C332.186 403.753 332.534 404.701 332.534 405.961V412.999H329.798V406.015C329.798 405.475 329.666 405.073 329.402 404.809C329.138 404.533 328.754 404.395 328.25 404.395H325.766C325.706 404.491 325.646 404.653 325.586 404.881C325.538 405.097 325.514 405.475 325.514 406.015V412.999H322.778V406.843C322.778 406.363 322.82 405.931 322.904 405.547C323 405.151 323.186 404.785 323.462 404.449L323.318 404.323V402.145H328.394ZM321.878 404.395L322.166 402.145H327.224V404.395H321.878ZM341.706 412.999V406.015C341.706 405.475 341.568 405.073 341.292 404.809C341.028 404.533 340.65 404.395 340.158 404.395H334.56L334.866 402.145H340.302C341.67 402.145 342.702 402.469 343.398 403.117C344.094 403.753 344.442 404.701 344.442 405.961V412.999H341.706ZM334.794 412.999V407.149L337.53 407.005V412.999H334.794Z" fill="black"/>
<circle class="AreaFilterMap-regionCity AreaFilterMap-regionCity--center" cx="319.421" cy="425.999" r="4" fill="black"/>
<path class="AreaFilterMap-regionCity AreaFilterMap-regionCity--center" d="M344.813 158.679V164.999H342.432V158.662C342.432 157.753 342.235 157.121 341.843 156.763C341.456 156.4 340.803 156.218 339.883 156.218H336.227V154.091H340.023C341.178 154.091 342.104 154.247 342.801 154.557C343.504 154.862 344.014 155.351 344.33 156.025C344.652 156.693 344.813 157.578 344.813 158.679ZM350.157 154.091V159.883H347.784V154.091H350.157ZM358.006 158.389V164.999H352.319V162.872H355.633V158.846C355.633 158.055 355.58 157.49 355.475 157.15C355.369 156.816 355.193 156.579 354.947 156.438C354.701 156.292 354.341 156.218 353.866 156.218H352.82V154.091H354.314C355.322 154.091 356.075 154.226 356.573 154.496C357.071 154.765 357.435 155.208 357.663 155.823C357.892 156.438 358.006 157.293 358.006 158.389ZM370.205 163.917C369.725 164.187 369.133 164.41 368.43 164.585C367.732 164.755 366.862 164.881 365.819 164.963C364.782 165.045 363.514 165.086 362.014 165.086L359.957 154.091H362.444L363.402 159.347L364.044 159.224C364.442 159.148 364.735 159.019 364.923 158.837C365.116 158.65 365.263 158.372 365.362 158.002C365.409 157.821 365.453 157.569 365.494 157.247C365.541 156.918 365.585 156.52 365.626 156.051L365.758 154.091H368.184L367.92 157.097C367.885 157.507 367.835 157.876 367.771 158.205C367.706 158.533 367.624 158.817 367.524 159.057C367.331 159.538 367.059 159.913 366.707 160.182C366.361 160.452 365.811 160.677 365.055 160.859L363.736 161.167L364.097 162.968H364.308C365.04 162.968 365.688 162.939 366.25 162.88C366.818 162.816 367.302 162.719 367.7 162.59C368.233 162.426 368.673 162.198 369.019 161.905C369.364 161.606 369.637 161.21 369.836 160.718C370.035 160.22 370.176 159.59 370.258 158.829L370.812 154.091H373.264L372.701 158.767C372.584 159.775 372.42 160.61 372.209 161.272C372.004 161.934 371.737 162.473 371.409 162.889C371.087 163.299 370.686 163.642 370.205 163.917Z" fill="black"/>
<circle class="AreaFilterMap-regionCity AreaFilterMap-regionCity--center" cx="382.421" cy="158.499" r="4" fill="black"/>
<circle class="AreaFilterMap-regionCity AreaFilterMap-regionCity--center" cx="201.421" cy="363.999" r="4" fill="black"/>
<path class="AreaFilterMap-regionCity AreaFilterMap-regionCity--center" d="M217.876 370.999V364.015C217.876 363.475 217.738 363.073 217.462 362.809C217.198 362.533 216.82 362.395 216.328 362.395H210.73L211.036 360.145H216.472C217.84 360.145 218.872 360.469 219.568 361.117C220.264 361.753 220.612 362.701 220.612 363.961V370.999H217.876ZM210.964 370.999V365.149L213.7 365.005V370.999H210.964ZM223.432 366.427V360.145H226.168V366.427H223.432ZM221.956 362.395L222.262 360.145H224.962V362.395H221.956ZM227.878 370.999V368.749H231.082C231.874 368.749 232.456 368.479 232.828 367.939C233.212 367.399 233.404 366.643 233.404 365.671C233.404 364.627 233.212 363.823 232.828 363.259C232.456 362.683 231.874 362.395 231.082 362.395H227.878L228.166 360.145H231.082C232.75 360.145 234.016 360.631 234.88 361.603C235.756 362.563 236.194 363.919 236.194 365.671C236.194 367.363 235.756 368.677 234.88 369.613C234.016 370.537 232.75 370.999 231.082 370.999H227.878ZM239.594 360.145H245.876L245.678 361.747L242.438 370.999H239.594L242.672 362.395H236.858V357.607L239.594 357.319V360.145ZM247.31 370.999L248.516 364.627L247.004 360.145H249.74L250.424 362.611H250.496C250.664 362.179 250.856 361.801 251.072 361.477C251.288 361.141 251.546 360.865 251.846 360.649C252.146 360.421 252.488 360.253 252.872 360.145C253.268 360.025 253.724 359.965 254.24 359.965C255.092 359.965 255.836 360.175 256.472 360.595C257.12 361.003 257.624 361.603 257.984 362.395C258.356 363.175 258.542 364.123 258.542 365.239V365.491C258.542 366.583 258.344 367.543 257.948 368.371C257.564 369.199 257 369.847 256.256 370.315C255.512 370.771 254.612 370.999 253.556 370.999H251.828L252.152 368.749H253.43C254.174 368.749 254.756 368.443 255.176 367.831C255.596 367.219 255.806 366.439 255.806 365.491V365.239C255.806 364.591 255.71 364.045 255.518 363.601C255.326 363.157 255.068 362.827 254.744 362.611C254.432 362.383 254.078 362.269 253.682 362.269C253.25 362.269 252.89 362.335 252.602 362.467C252.314 362.587 252.074 362.773 251.882 363.025C251.702 363.277 251.552 363.577 251.432 363.925C251.312 364.273 251.222 364.663 251.162 365.095L250.136 370.999H247.31Z" fill="black"/>
<path class="AreaFilterMap-regionTitle AreaFilterMap-regionTitle--center" d="M258.896 287.199V282.459L266.786 280.989C267.386 280.869 267.916 280.679 268.376 280.419C268.836 280.139 269.226 279.729 269.546 279.189C269.866 278.629 270.126 277.899 270.326 276.999C270.546 276.099 270.706 274.959 270.806 273.579L271.256 267.729H277.016L276.536 273.789C276.456 274.729 276.336 275.689 276.176 276.669C276.016 277.649 275.746 278.609 275.366 279.549C274.986 280.489 274.446 281.369 273.746 282.189C273.046 282.989 272.126 283.699 270.986 284.319C269.866 284.919 268.466 285.379 266.786 285.699L258.896 287.199ZM262.886 283.989L259.856 268.089L265.496 267.429L267.176 277.269C267.336 278.049 267.356 278.849 267.236 279.669C267.116 280.489 266.866 281.279 266.486 282.039C266.106 282.779 265.616 283.429 265.016 283.989H262.886ZM287.555 285.999V274.629C287.555 273.909 287.365 273.369 286.985 273.009C286.625 272.649 286.125 272.469 285.485 272.469H279.425L280.025 267.729H285.755C288.255 267.729 290.135 268.299 291.395 269.439C292.675 270.579 293.315 272.279 293.315 274.539V281.589C293.115 282.329 292.765 283.079 292.265 283.839C291.765 284.599 291.265 285.319 290.765 285.999H287.555ZM278.525 285.999V281.259H295.595L294.995 285.999H278.525ZM308.177 285.999L296.507 267.729H303.257L307.307 274.779L312.497 282.699L308.177 285.999ZM297.227 285.999V281.259H310.847L312.497 282.699L311.987 285.999H297.227ZM307.007 278.709L305.387 275.019C305.867 274.899 306.237 274.709 306.497 274.449C306.777 274.169 306.987 273.839 307.127 273.459C307.267 273.079 307.367 272.679 307.427 272.259C307.487 271.839 307.547 271.419 307.607 270.999L308.027 267.729H313.757L313.367 271.389C313.287 272.169 313.117 272.939 312.857 273.699C312.597 274.439 312.227 275.149 311.747 275.829C311.267 276.489 310.637 277.069 309.857 277.569C309.077 278.069 308.127 278.449 307.007 278.709ZM328.403 285.999C327.523 284.479 326.693 283.089 325.913 281.829C325.153 280.569 324.373 279.359 323.573 278.199C322.773 277.019 321.863 275.809 320.843 274.569C320.503 274.149 320.083 273.619 319.583 272.979C319.083 272.319 318.563 271.649 318.023 270.969C317.503 270.269 317.013 269.629 316.553 269.049C316.113 268.469 315.763 268.029 315.503 267.729H322.583C322.983 268.209 323.423 268.799 323.903 269.499C324.403 270.179 324.873 270.839 325.313 271.479C325.753 272.119 326.083 272.619 326.303 272.979C327.263 274.479 328.233 275.939 329.213 277.359C330.193 278.779 331.173 280.199 332.153 281.619C333.153 283.019 334.133 284.479 335.093 285.999H328.403ZM315.143 285.999L315.863 281.259C316.023 280.219 316.283 279.209 316.643 278.229C317.023 277.249 317.623 276.379 318.443 275.619C319.263 274.839 320.413 274.279 321.893 273.939L323.543 277.629C323.023 277.769 322.633 278.049 322.373 278.469C322.133 278.889 321.963 279.379 321.863 279.939C321.763 280.499 321.663 281.069 321.563 281.649L320.873 285.999H315.143ZM328.283 278.709L326.663 275.019C327.303 274.859 327.763 274.569 328.043 274.149C328.323 273.729 328.513 273.239 328.613 272.679C328.733 272.099 328.823 271.539 328.883 270.999L329.303 267.729H335.033L334.643 271.389C334.543 272.409 334.273 273.419 333.833 274.419C333.413 275.399 332.753 276.269 331.853 277.029C330.973 277.789 329.783 278.349 328.283 278.709ZM263.994 308.729H274.224L273.864 312.029L268.494 326.999H262.494L267.534 313.469H258.234V304.799L263.994 304.199V308.729ZM278.278 319.559V308.729H284.038V319.559H278.278ZM276.028 313.469L276.628 308.729H281.488V313.469H276.028ZM292.06 308.729H302.29L301.93 312.029L296.56 326.999H290.56L295.6 313.469H286.3V304.799L292.06 304.199V308.729ZM310.071 327.149L309.411 323.339H309.021C308.701 324.079 308.391 324.689 308.091 325.169C307.791 325.649 307.471 326.019 307.131 326.279C306.791 326.539 306.391 326.729 305.931 326.849C305.471 326.949 304.911 326.999 304.251 326.999H303.351V322.139H304.251C304.811 322.119 305.321 322.059 305.781 321.959C306.241 321.839 306.651 321.689 307.011 321.509C307.371 321.309 307.681 321.109 307.941 320.909C308.201 320.709 308.411 320.509 308.571 320.309V315.299C308.571 314.559 308.401 314.079 308.061 313.859C307.721 313.619 307.111 313.499 306.231 313.499H304.551L305.151 308.729H307.821C309.341 308.729 310.571 308.959 311.511 309.419C312.471 309.879 313.181 310.559 313.641 311.459C314.101 312.339 314.331 313.429 314.331 314.729V321.419L315.171 326.309L310.071 327.149ZM328.957 326.999V315.629C328.957 314.909 328.767 314.369 328.387 314.009C328.027 313.649 327.527 313.469 326.887 313.469H317.347L317.947 308.729H327.157C329.657 308.729 331.537 309.299 332.797 310.439C334.077 311.579 334.717 313.279 334.717 315.539V326.999H328.957ZM317.647 326.999V317.519L323.407 317.219V326.999H317.647Z" fill="#0A9648"/>
<path class="AreaFilterMap-regionShape AreaFilterMap-regionShape--golan" d="M505.622 16.0537C511.418 13.3382 517.053 12.4068 522.508 13.3682C527.947 14.3268 532.923 17.116 537.504 21.3564C542.574 26.0493 548.215 28.9475 554.996 29.0947C556.228 29.1215 557.356 29.4243 558.271 29.7314C559.09 30.0061 560.145 30.4368 560.71 30.6455C562.167 31.1838 563.504 31.7486 564.551 32.4189C565.585 33.0818 566.793 34.1393 567.182 35.8311C567.564 37.4962 566.964 38.9705 566.365 40.0137C565.751 41.0832 564.841 42.2053 563.821 43.3652C562.02 45.4134 560.463 47.4151 559.54 49.4873C553.368 63.3538 544.307 75.3856 536.073 87.3408C532.974 91.841 531.071 97.5668 529.496 103.415C528.788 106.046 530.339 108.904 533.582 110.807C545.061 117.54 554.479 126.581 563.366 135.692C566.21 138.608 568.078 143.311 568.231 147.289C568.703 159.511 568.72 171.768 568.338 183.987C567.968 195.832 573.782 204.549 582.279 212.839C587.574 218.004 594.169 223.338 599.182 229.54C602.153 233.216 603.612 239.066 603.146 243.633C602.032 254.547 599.724 265.462 597.972 276.006C595.651 289.968 587.252 299.531 576.978 307.533C572.363 311.128 568.205 315.684 564.615 320.518C561.72 324.416 561.53 327.156 562.279 328.98C563.092 330.957 565.47 333.058 570.276 334.563C581.318 338.02 592.354 342.1 602.819 347.229C614.156 352.784 619.127 363.647 620.26 375.087C622.037 393.028 623.015 411.186 624.45 429.019C625.277 439.288 626.533 450.171 627.282 460.605C627.393 462.147 626.788 463.765 626.205 464.856C625.883 465.459 625.472 466.084 624.975 466.624C624.534 467.103 623.752 467.819 622.638 468.103C606.097 472.311 593.477 482.318 581.171 494.611C567.658 508.111 550.167 514.669 531.975 517.896C514.212 521.048 496.326 524.326 478.317 526.6C471.763 527.427 466.928 529.725 463.179 533.126C459.389 536.563 456.529 541.29 454.224 547.241C450.864 555.913 447.103 564.453 443.02 572.799C437.234 584.623 427.605 592.901 417.785 600.261C401.786 612.253 385.887 624.365 369.318 636.901L366.966 638.682L365.146 636.358C359.347 628.951 352.18 620.459 348.608 609.728C343.873 595.501 342.441 580.747 341.429 566.265C341.322 564.745 341.081 563.285 340.849 561.523C340.628 559.847 340.431 557.982 340.54 556.065C340.734 552.652 340.921 550.391 340.921 546.499V546.25L340.962 546.005C341.428 543.21 341.421 542.881 341.421 539.999V539.84L341.438 539.683C342.156 532.891 343.331 527.101 344.491 521.442C345.655 515.768 346.801 510.234 347.541 503.76C348.72 493.44 349.947 483.039 351.667 472.712C354.02 458.58 356.607 444.465 359.559 430.427C361.979 418.911 365.294 407.121 367.876 395.88C372.146 377.287 376.54 358.813 380.219 340.194C381.241 335.02 381.864 329.742 382.477 324.337C383.085 318.969 383.684 313.459 384.66 308.009C385.073 305.704 385.703 303.207 386.278 300.991C386.873 298.701 387.385 296.791 387.645 295.435C387.989 293.635 389.352 289.896 390.482 286.925C391.074 285.368 391.647 283.908 392.072 282.837C392.285 282.301 392.461 281.862 392.584 281.557C392.632 281.436 392.672 281.336 392.703 281.259C396.584 266.865 396.29 252.361 393.081 237.755C388.753 218.056 386.667 198.106 387.594 177.886C387.76 174.268 389.772 170.709 391.577 168.285C393.717 165.413 396.018 162.68 398.254 160.026C400.509 157.35 402.7 154.753 404.726 152.051C407.674 148.118 408.155 145.656 407.747 144.108C407.343 142.573 405.729 140.679 401.19 138.75C397.654 137.247 393.561 136.62 389.199 136.027C385.944 135.585 382.653 135.31 379.27 135.025C375.912 134.743 372.465 134.45 369.028 133.971C361.822 132.966 355.509 135.628 348.289 138.821C347.027 139.38 345.887 139.981 344.007 140.895L339.963 142.859L339.701 138.371C339.595 136.549 339.482 135.047 339.427 133.596C339.089 124.727 338.571 115.664 338.578 106.64C338.58 104.994 339.266 103.339 340.017 102.111C340.759 100.896 341.934 99.4941 343.468 98.7666C354.961 93.3149 367.197 91.1158 380.097 94.3945C383.305 95.2101 384.432 95.087 385.005 94.8242C385.554 94.5725 386.337 93.8493 387.71 90.958C389.266 87.6819 390.885 83.6582 392.774 80.1455C395.435 75.2002 399.283 72.1856 403.421 70.0332C407.401 67.9629 412.001 66.5449 415.849 65.0889C426.124 61.2004 436.074 56.5498 446.601 51.8711C446.734 51.628 446.865 51.3948 446.988 51.1748C447.276 50.6619 447.519 50.2267 447.732 49.8076C448.168 48.9519 448.341 48.4165 448.378 48.0186C448.716 44.4029 448.428 40.9594 448.423 36.8193C448.418 33.0869 449.923 29.0955 452.08 25.8643C454.221 22.6578 457.335 19.7112 460.996 18.6035L461.213 18.5439C462.291 18.2831 463.268 18.5227 463.868 18.7314C464.568 18.9749 465.215 19.3385 465.753 19.6943C466.828 20.4054 467.863 21.3481 468.587 22.1943C469.986 23.8299 471.2 25.6149 472.299 27.1914C473.435 28.8216 474.473 30.2684 475.648 31.5264C477.873 33.9064 479.668 34.3169 480.828 34.1152C482.039 33.9046 483.675 32.8383 485.134 29.877C487.318 25.4422 490.556 21.1989 496.254 19.3672C499.672 18.2684 502.747 17.4009 505.622 16.0537Z" fill="#B4DAC5" stroke="#82C64A" stroke-width="6"/>
<circle class="AreaFilterMap-regionCity AreaFilterMap-regionCity--golan" cx="503.421" cy="102.999" r="4" fill="black"/>
<path class="AreaFilterMap-regionCity AreaFilterMap-regionCity--golan" d="M484.503 119.145H490.785L490.587 120.747L487.347 129.999H484.503L487.581 121.395H481.767V116.607L484.503 116.319V119.145ZM491.949 121.395V119.145H501.201L500.895 121.395H491.949ZM496.665 129.999V123.177C496.665 123.009 496.689 122.811 496.737 122.583C496.785 122.343 496.869 122.115 496.989 121.899C497.121 121.683 497.301 121.515 497.529 121.395H499.707C499.563 121.503 499.473 121.653 499.437 121.845C499.413 122.037 499.401 122.265 499.401 122.529V129.999H496.665ZM505.274 117.345C505.166 117.765 505.028 118.221 504.86 118.713C504.692 119.193 504.512 119.679 504.32 120.171C504.128 120.651 503.93 121.113 503.726 121.557H501.8C501.884 121.197 501.968 120.825 502.052 120.441C502.136 120.057 502.214 119.673 502.286 119.289C502.37 118.893 502.442 118.515 502.502 118.155C502.574 117.795 502.634 117.459 502.682 117.147H505.148L505.274 117.345ZM510.058 130.089L509.554 127.767H509.356C509.152 128.175 508.948 128.523 508.744 128.811C508.552 129.099 508.336 129.333 508.096 129.513C507.868 129.681 507.61 129.807 507.322 129.891C507.034 129.963 506.692 129.999 506.296 129.999H505.864V127.695H506.296C506.644 127.683 506.968 127.629 507.268 127.533C507.568 127.437 507.838 127.311 508.078 127.155C508.33 126.999 508.546 126.837 508.726 126.669C508.906 126.489 509.044 126.321 509.14 126.165V122.583C509.14 122.139 509.032 121.833 508.816 121.665C508.612 121.497 508.258 121.413 507.754 121.413H506.692L506.98 119.145H508.492C509.272 119.145 509.908 119.271 510.4 119.523C510.904 119.763 511.276 120.117 511.516 120.585C511.756 121.053 511.876 121.629 511.876 122.313V126.831L512.488 129.657L510.058 130.089ZM513.822 129.999L515.028 123.627L513.516 119.145H516.252L516.936 121.611H517.008C517.176 121.179 517.368 120.801 517.584 120.477C517.8 120.141 518.058 119.865 518.358 119.649C518.658 119.421 519 119.253 519.384 119.145C519.78 119.025 520.236 118.965 520.752 118.965C521.604 118.965 522.348 119.175 522.984 119.595C523.632 120.003 524.136 120.603 524.496 121.395C524.868 122.175 525.054 123.123 525.054 124.239V124.491C525.054 125.583 524.856 126.543 524.46 127.371C524.076 128.199 523.512 128.847 522.768 129.315C522.024 129.771 521.124 129.999 520.068 129.999H518.34L518.664 127.749H519.942C520.686 127.749 521.268 127.443 521.688 126.831C522.108 126.219 522.318 125.439 522.318 124.491V124.239C522.318 123.591 522.222 123.045 522.03 122.601C521.838 122.157 521.58 121.827 521.256 121.611C520.944 121.383 520.59 121.269 520.194 121.269C519.762 121.269 519.402 121.335 519.114 121.467C518.826 121.587 518.586 121.773 518.394 122.025C518.214 122.277 518.064 122.577 517.944 122.925C517.824 123.273 517.734 123.663 517.674 124.095L516.648 129.999H513.822ZM484.329 154.161C482.613 154.161 481.323 153.729 480.459 152.865C479.607 151.989 479.181 150.753 479.181 149.157V148.995C479.181 148.155 479.325 147.429 479.613 146.817C479.913 146.205 480.285 145.767 480.729 145.503V145.251L483.051 145.197L482.961 145.431C482.577 145.587 482.301 145.929 482.133 146.457C481.977 146.985 481.899 147.645 481.899 148.437C481.899 149.577 482.085 150.453 482.457 151.065C482.841 151.677 483.465 151.983 484.329 151.983C485.205 151.983 485.835 151.653 486.219 150.993C486.603 150.333 486.795 149.391 486.795 148.167C486.795 147.279 486.645 146.595 486.345 146.115C486.057 145.635 485.523 145.395 484.743 145.395H478.731L479.019 143.145H484.761C486.393 143.145 487.593 143.583 488.361 144.459C489.141 145.335 489.531 146.577 489.531 148.185C489.531 150.081 489.093 151.551 488.217 152.595C487.353 153.639 486.057 154.161 484.329 154.161ZM490.76 153.999L491.966 147.627L490.454 143.145H493.19L493.874 145.611H493.946C494.114 145.179 494.306 144.801 494.522 144.477C494.738 144.141 494.996 143.865 495.296 143.649C495.596 143.421 495.938 143.253 496.322 143.145C496.718 143.025 497.174 142.965 497.69 142.965C498.542 142.965 499.286 143.175 499.922 143.595C500.57 144.003 501.074 144.603 501.434 145.395C501.806 146.175 501.992 147.123 501.992 148.239V148.491C501.992 149.583 501.794 150.543 501.398 151.371C501.014 152.199 500.45 152.847 499.706 153.315C498.962 153.771 498.062 153.999 497.006 153.999H495.278L495.602 151.749H496.88C497.624 151.749 498.206 151.443 498.626 150.831C499.046 150.219 499.256 149.439 499.256 148.491V148.239C499.256 147.591 499.16 147.045 498.968 146.601C498.776 146.157 498.518 145.827 498.194 145.611C497.882 145.383 497.528 145.269 497.132 145.269C496.7 145.269 496.34 145.335 496.052 145.467C495.764 145.587 495.524 145.773 495.332 146.025C495.152 146.277 495.002 146.577 494.882 146.925C494.762 147.273 494.672 147.663 494.612 148.095L493.586 153.999H490.76ZM511.012 153.999C510.484 153.087 509.968 152.241 509.464 151.461C508.972 150.669 508.468 149.913 507.952 149.193C507.448 148.461 506.908 147.747 506.332 147.051C506.092 146.751 505.822 146.415 505.522 146.043C505.234 145.659 504.94 145.281 504.64 144.909C504.352 144.537 504.088 144.195 503.848 143.883C503.608 143.571 503.41 143.325 503.254 143.145H506.602C506.83 143.421 507.082 143.751 507.358 144.135C507.634 144.507 507.91 144.885 508.186 145.269C508.474 145.653 508.726 146.001 508.942 146.313C509.494 147.141 510.064 147.975 510.652 148.815C511.24 149.643 511.834 150.489 512.434 151.353C513.034 152.205 513.616 153.087 514.18 153.999H511.012ZM502.948 153.999L503.38 151.101C503.488 150.441 503.65 149.823 503.866 149.247C504.082 148.659 504.418 148.137 504.874 147.681C505.33 147.225 505.96 146.883 506.764 146.655L507.574 148.419C507.214 148.551 506.938 148.761 506.746 149.049C506.554 149.337 506.416 149.673 506.332 150.057C506.248 150.429 506.17 150.831 506.098 151.263L505.684 153.999H502.948ZM510.346 149.607L509.536 147.843C509.956 147.699 510.268 147.483 510.472 147.195C510.688 146.907 510.844 146.571 510.94 146.187C511.048 145.803 511.12 145.407 511.156 144.999L511.39 143.145H514.108L513.892 145.161C513.832 145.809 513.676 146.427 513.424 147.015C513.184 147.603 512.812 148.119 512.308 148.563C511.804 149.007 511.15 149.355 510.346 149.607ZM521.719 154.125C520.471 154.125 519.397 153.879 518.497 153.387C517.597 152.895 516.907 152.163 516.427 151.191C515.947 150.219 515.707 148.995 515.707 147.519V143.145H518.425V147.501C518.425 148.545 518.551 149.397 518.803 150.057C519.055 150.705 519.421 151.185 519.901 151.497C520.393 151.797 520.981 151.947 521.665 151.947H521.737C522.445 151.935 523.039 151.779 523.519 151.479C524.011 151.179 524.383 150.705 524.635 150.057C524.887 149.397 525.013 148.551 525.013 147.519V143.145H527.749V147.537C527.749 149.013 527.509 150.237 527.029 151.209C526.549 152.169 525.865 152.895 524.977 153.387C524.101 153.867 523.045 154.113 521.809 154.125H521.719ZM517.651 149.733L517.507 147.897C518.287 147.945 518.881 147.855 519.289 147.627C519.697 147.387 519.979 147.015 520.135 146.511C520.303 146.007 520.387 145.389 520.387 144.657V143.145H523.105V144.531C523.105 145.335 523.009 146.067 522.817 146.727C522.637 147.387 522.337 147.945 521.917 148.401C521.497 148.857 520.939 149.205 520.243 149.445C519.547 149.673 518.683 149.769 517.651 149.733Z" fill="black"/>
<circle class="AreaFilterMap-regionCity AreaFilterMap-regionCity--golan" cx="419.421" cy="508.999" r="4" fill="black"/>
<path class="AreaFilterMap-regionCity AreaFilterMap-regionCity--golan" d="M399.301 539.311V525.145H402.037V539.167L399.301 539.311ZM397.843 527.395L398.131 525.145H401.101V527.395H397.843ZM405.663 531.427V525.145H408.399V531.427H405.663ZM404.187 527.395L404.493 525.145H407.193V527.395H404.187ZM415.402 535.999V529.015C415.402 528.475 415.27 528.073 415.006 527.809C414.742 527.533 414.358 527.395 413.854 527.395H410.182L410.47 525.145H413.998C415.366 525.145 416.398 525.469 417.094 526.117C417.79 526.753 418.138 527.701 418.138 528.961V535.999H415.402ZM426.633 535.963L419.757 525.145H422.961L425.733 529.843L428.685 534.397L426.633 535.963ZM420.009 535.999V533.749H427.875L428.685 534.397L428.433 535.999H420.009ZM425.535 531.697L424.761 529.915C425.085 529.819 425.343 529.663 425.535 529.447C425.727 529.231 425.877 528.979 425.985 528.691C426.093 528.403 426.171 528.115 426.219 527.827C426.279 527.527 426.327 527.245 426.363 526.981L426.579 525.145H429.315L429.099 527.197C429.051 527.617 428.955 528.055 428.811 528.511C428.667 528.967 428.457 529.405 428.181 529.825C427.917 530.245 427.563 530.623 427.119 530.959C426.687 531.283 426.159 531.529 425.535 531.697ZM435.648 535.999L438.15 527.377H430.77L431.058 525.145H441.246L441.066 526.765L438.384 535.999H435.648ZM431.202 539.311V529.681L433.938 529.519V539.167L431.202 539.311Z" fill="black"/>
<circle class="AreaFilterMap-regionCity AreaFilterMap-regionCity--golan" cx="408.421" cy="299.999" r="4" fill="black"/>
<path class="AreaFilterMap-regionCity AreaFilterMap-regionCity--golan" d="M392.402 327.683V325.433L396.704 324.569C397.136 324.473 397.514 324.335 397.838 324.155C398.174 323.963 398.462 323.681 398.702 323.309C398.942 322.937 399.134 322.439 399.278 321.815C399.434 321.179 399.548 320.363 399.62 319.367L399.836 316.145H402.572L402.338 319.457C402.29 320.189 402.206 320.885 402.086 321.545C401.978 322.193 401.798 322.799 401.546 323.363C401.306 323.927 400.982 324.437 400.574 324.893C400.166 325.349 399.644 325.739 399.008 326.063C398.372 326.387 397.604 326.639 396.704 326.819L392.402 327.683ZM394.976 325.973L392.942 316.325L395.624 316.001L396.956 322.607C397.04 322.991 397.058 323.387 397.01 323.795C396.962 324.191 396.848 324.581 396.668 324.965C396.5 325.337 396.278 325.673 396.002 325.973H394.976ZM406.404 316.145H412.686L412.488 317.747L409.248 326.999H406.404L409.482 318.395H403.668V313.607L406.404 313.319V316.145ZM418.926 326.999L421.428 318.377H414.048L414.336 316.145H424.524L424.344 317.765L421.662 326.999H418.926ZM414.48 330.311V320.681L417.216 320.519V330.167L414.48 330.311ZM393.275 354.311V340.145H396.011V354.167L393.275 354.311ZM391.817 342.395L392.105 340.145H395.075V342.395H391.817ZM399.638 350.999V340.145H402.374V350.999H399.638ZM398.162 342.395L398.468 340.145H401.438V342.395H398.162ZM406.8 340.145H413.082L412.884 341.747L409.644 350.999H406.8L409.878 342.395H404.064V337.607L406.8 337.319V340.145ZM422.095 350.999C421.567 350.087 421.051 349.241 420.547 348.461C420.055 347.669 419.551 346.913 419.035 346.193C418.531 345.461 417.991 344.747 417.415 344.051C417.175 343.751 416.905 343.415 416.605 343.043C416.317 342.659 416.023 342.281 415.723 341.909C415.435 341.537 415.171 341.195 414.931 340.883C414.691 340.571 414.493 340.325 414.337 340.145H417.685C417.913 340.421 418.165 340.751 418.441 341.135C418.717 341.507 418.993 341.885 419.269 342.269C419.557 342.653 419.809 343.001 420.025 343.313C420.577 344.141 421.147 344.975 421.735 345.815C422.323 346.643 422.917 347.489 423.517 348.353C424.117 349.205 424.699 350.087 425.263 350.999H422.095ZM414.031 350.999L414.463 348.101C414.571 347.441 414.733 346.823 414.949 346.247C415.165 345.659 415.501 345.137 415.957 344.681C416.413 344.225 417.043 343.883 417.847 343.655L418.657 345.419C418.297 345.551 418.021 345.761 417.829 346.049C417.637 346.337 417.499 346.673 417.415 347.057C417.331 347.429 417.253 347.831 417.181 348.263L416.767 350.999H414.031ZM421.429 346.607L420.619 344.843C421.039 344.699 421.351 344.483 421.555 344.195C421.771 343.907 421.927 343.571 422.023 343.187C422.131 342.803 422.203 342.407 422.239 341.999L422.473 340.145H425.191L424.975 342.161C424.915 342.809 424.759 343.427 424.507 344.015C424.267 344.603 423.895 345.119 423.391 345.563C422.887 346.007 422.233 346.355 421.429 346.607Z" fill="black"/>
<path class="AreaFilterMap-regionTitle AreaFilterMap-regionTitle--golan" d="M470.572 291.399V267.729H476.332V291.099L470.572 291.399ZM468.322 272.469L468.922 267.729H474.382V272.469H468.322ZM481.735 285.999V267.729H487.495V285.999H481.735ZM479.485 272.469L480.085 267.729H485.545V272.469H479.485ZM490.744 285.999V281.259H497.704C498.624 281.259 499.394 281.079 500.014 280.719C500.654 280.359 501.134 279.839 501.454 279.159C501.774 278.479 501.934 277.659 501.934 276.699C501.934 275.299 501.674 274.199 501.154 273.399C500.634 272.579 499.724 272.169 498.424 272.169C497.404 272.169 496.694 272.349 496.294 272.709C495.894 273.049 495.694 273.499 495.694 274.059C495.694 274.419 495.774 274.729 495.934 274.989C496.114 275.249 496.354 275.449 496.654 275.589C496.834 275.669 497.024 275.739 497.224 275.799C497.424 275.859 497.594 275.889 497.734 275.889L497.254 279.969C496.934 280.029 496.554 280.039 496.114 279.999C495.674 279.959 495.134 279.869 494.494 279.729C493.214 279.449 492.174 278.799 491.374 277.779C490.594 276.739 490.204 275.439 490.204 273.879C490.204 272.619 490.504 271.509 491.104 270.549C491.704 269.569 492.614 268.809 493.834 268.269C495.054 267.709 496.584 267.429 498.424 267.429C501.404 267.429 503.704 268.259 505.324 269.919C506.964 271.559 507.784 273.819 507.784 276.699C507.784 278.659 507.364 280.339 506.524 281.739C505.704 283.119 504.494 284.179 502.894 284.919C501.314 285.639 499.384 285.999 497.104 285.999H490.744ZM520.203 285.999L508.533 267.729H515.283L519.333 274.779L524.523 282.699L520.203 285.999ZM509.253 285.999V281.259H522.873L524.523 282.699L524.013 285.999H509.253ZM519.033 278.709L517.413 275.019C517.893 274.899 518.263 274.709 518.523 274.449C518.803 274.169 519.013 273.839 519.153 273.459C519.293 273.079 519.393 272.679 519.453 272.259C519.513 271.839 519.573 271.419 519.633 270.999L520.053 267.729H525.783L525.393 271.389C525.313 272.169 525.143 272.939 524.883 273.699C524.623 274.439 524.253 275.149 523.773 275.829C523.293 276.489 522.663 277.069 521.883 277.569C521.103 278.069 520.153 278.449 519.033 278.709ZM461.28 326.909C461.12 326.249 460.97 325.569 460.83 324.869C460.69 324.149 460.57 323.449 460.47 322.769C460.37 322.069 460.29 321.409 460.23 320.789C460.19 320.169 460.17 319.619 460.17 319.139C460.17 318.459 460.25 317.769 460.41 317.069C460.59 316.369 460.96 315.699 461.52 315.059C462.1 314.419 462.99 313.849 464.19 313.349L469.08 313.469C468 313.809 467.21 314.229 466.71 314.729C466.23 315.229 465.94 315.789 465.84 316.409C465.74 317.029 465.72 317.679 465.78 318.359C465.82 318.839 465.91 319.489 466.05 320.309C466.19 321.129 466.34 321.979 466.5 322.859C466.68 323.739 466.84 324.549 466.98 325.289C467.12 326.029 467.22 326.569 467.28 326.909H461.28ZM459.3 313.469V308.729H469.68L469.08 313.469H459.3ZM470.894 326.999V322.259H476.534C477.614 322.259 478.404 321.889 478.904 321.149C479.404 320.409 479.654 319.389 479.654 318.089C479.654 316.629 479.404 315.499 478.904 314.699C478.404 313.879 477.614 313.469 476.534 313.469H470.894L471.494 308.729H476.534C479.454 308.729 481.674 309.559 483.194 311.219C484.734 312.859 485.504 315.149 485.504 318.089C485.504 320.889 484.734 323.079 483.194 324.659C481.674 326.219 479.454 326.999 476.534 326.999H470.894ZM495.467 326.999V315.629C495.467 314.909 495.277 314.369 494.897 314.009C494.537 313.649 494.037 313.469 493.397 313.469H487.307L487.907 308.729H493.667C496.167 308.729 498.047 309.299 499.307 310.439C500.587 311.579 501.227 313.279 501.227 315.539V326.999H495.467ZM504.188 326.999L506.168 316.409L503.618 308.729H509.378L510.278 312.419H510.458C510.778 311.639 511.128 310.989 511.508 310.469C511.908 309.949 512.358 309.549 512.858 309.269C513.378 308.969 513.948 308.759 514.568 308.639C515.208 308.499 515.928 308.429 516.728 308.429C518.208 308.429 519.498 308.799 520.598 309.539C521.718 310.259 522.588 311.289 523.208 312.629C523.848 313.969 524.168 315.559 524.168 317.399V317.789C524.168 319.589 523.818 321.189 523.118 322.589C522.438 323.969 521.448 325.049 520.148 325.829C518.848 326.609 517.278 326.999 515.438 326.999H512.648L513.308 322.259H515.138C516.158 322.259 516.958 321.839 517.538 320.999C518.118 320.139 518.408 319.069 518.408 317.789V317.399C518.408 316.539 518.278 315.799 518.018 315.179C517.758 314.559 517.408 314.089 516.968 313.769C516.528 313.429 516.028 313.259 515.468 313.259C514.848 313.259 514.328 313.339 513.908 313.499C513.488 313.659 513.138 313.919 512.858 314.279C512.578 314.639 512.348 315.099 512.168 315.659C511.988 316.199 511.838 316.859 511.718 317.639L510.158 326.999H504.188ZM528.082 326.999V308.729H533.842V326.999H528.082ZM525.832 313.469L526.432 308.729H531.892V313.469H525.832ZM463.805 373.399V349.729H469.565V373.099L463.805 373.399ZM461.555 354.469L462.155 349.729H467.615V354.469H461.555ZM478.027 349.729H488.257L487.897 353.029L482.527 367.999H476.527L481.567 354.469H472.267V345.799L478.027 345.199V349.729ZM492.311 367.999V349.729H498.071V367.999H492.311ZM490.061 354.469L490.661 349.729H496.121V354.469H490.061ZM507.2 368.149L506.54 364.339H506.15C505.83 365.079 505.52 365.689 505.22 366.169C504.92 366.649 504.6 367.019 504.26 367.279C503.92 367.539 503.52 367.729 503.06 367.849C502.6 367.949 502.04 367.999 501.38 367.999H500.48V363.139H501.38C501.94 363.119 502.45 363.059 502.91 362.959C503.37 362.839 503.78 362.689 504.14 362.509C504.5 362.309 504.81 362.109 505.07 361.909C505.33 361.709 505.54 361.509 505.7 361.309V356.299C505.7 355.559 505.53 355.079 505.19 354.859C504.85 354.619 504.24 354.499 503.36 354.499H501.68L502.28 349.729H504.95C506.47 349.729 507.7 349.959 508.64 350.419C509.6 350.879 510.31 351.559 510.77 352.459C511.23 353.339 511.46 354.429 511.46 355.729V362.419L512.3 367.309L507.2 368.149ZM526.086 367.999V356.629C526.086 355.909 525.896 355.369 525.516 355.009C525.156 354.649 524.656 354.469 524.016 354.469H514.476L515.076 349.729H524.286C526.786 349.729 528.666 350.299 529.926 351.439C531.206 352.579 531.846 354.279 531.846 356.539V367.999H526.086ZM514.776 367.999V358.519L520.536 358.219V367.999H514.776Z" fill="#0A9648"/>
<path class="AreaFilterMap-regionShape AreaFilterMap-regionShape--upper" d="M159.668 371.997C165.896 371.834 171.627 371.753 175.947 371.876C178.097 371.938 179.98 372.052 181.431 372.249C182.148 372.346 182.857 372.475 183.477 372.664C183.92 372.798 185.002 373.147 185.75 374.088C186.373 374.873 186.706 375.793 186.906 376.555C187.117 377.358 187.246 378.24 187.324 379.129C187.482 380.909 187.465 383.008 187.365 385.146C187.165 389.428 186.609 394.262 186.235 397.721C185.829 401.479 187.451 405.668 190.526 409.28C193.591 412.879 197.796 415.53 201.882 416.366C215.276 419.106 228.384 418.481 242.479 419.296C246.34 419.52 250.089 420.436 253.572 421.333C257.144 422.253 260.413 423.145 263.714 423.543C267.926 424.052 271.636 425.181 274.948 427.196C278.262 429.211 281.02 432.018 283.462 435.662C284.021 436.496 285.325 437.421 287.441 438.231C289.465 439.006 291.816 439.518 293.898 439.81C301.497 440.876 309.276 440.839 317.314 440.958C328.533 441.123 339.724 441 351.436 441H354.977L354.395 444.492C352.094 458.315 349.914 470.623 348.035 483.006C347.057 489.455 346.334 495.963 345.706 502.507L345.442 505.314C344.965 510.493 343.687 518.469 342.546 525.064C341.972 528.38 341.428 531.378 341.027 533.547C340.827 534.632 340.662 535.51 340.547 536.118C340.49 536.421 340.445 536.657 340.414 536.818C340.413 536.825 340.411 536.831 340.41 536.837C340.095 544.719 340.504 552.575 340.923 560.592C341.335 568.486 341.754 576.538 341.435 584.665C341.572 585.265 341.668 585.949 341.739 586.534C341.848 587.428 341.941 588.455 342.019 589.428C342.097 590.406 342.161 591.356 342.211 592.1C342.236 592.476 342.256 592.792 342.273 593.041C342.282 593.164 342.29 593.265 342.296 593.343C342.299 593.382 342.301 593.412 342.303 593.434C342.304 593.45 342.305 593.459 342.306 593.461C344.237 611.325 353.542 625.684 364.838 639.848C370.134 646.489 374.914 653.529 379.499 660.549C382.113 664.552 382.774 668.723 382.653 672.701C382.537 676.543 381.661 680.501 381.084 683.842C379.902 690.681 378.214 697.527 376.711 704.538L375.944 708.117L372.585 706.662C371.928 706.377 371.402 706.202 370.457 705.824C369.635 705.495 368.666 705.072 367.73 704.482C358.059 698.383 348.437 692.196 338.822 686.051C330.338 680.629 320.999 675.393 312.652 669.141C306.801 664.758 301.399 663.079 296.34 663.383C291.247 663.69 286.076 666.033 280.768 670.5C274.966 675.38 265.445 679.723 257.434 682.6C253.383 684.055 249.586 685.181 246.663 685.837C245.217 686.162 243.892 686.392 242.821 686.47C242.298 686.508 241.709 686.521 241.144 686.443C240.774 686.392 239.543 686.207 238.679 685.133C237.94 684.215 237.478 683.063 237.596 681.773C237.704 680.589 238.266 679.705 238.684 679.172C239.097 678.645 239.585 678.198 239.831 677.966C240.209 677.612 240.158 677.632 240.069 677.768C240.711 676.786 241.461 675.884 242.045 675.162C242.672 674.387 243.154 673.767 243.525 673.136C245.698 669.446 246.745 667.144 246.616 665.026C246.501 663.128 245.336 660.569 240.596 656.79C239.209 655.684 237.172 653.956 236.542 651.537C235.779 648.605 237.268 646.031 239.659 643.899C241.24 642.49 241.718 641.199 241.722 640.154C241.726 639.065 241.216 637.654 239.676 636.056C238.768 635.115 237.99 634.27 237.317 633.538C236.633 632.793 236.084 632.196 235.586 631.69C234.566 630.655 234.041 630.313 233.643 630.166C233.311 630.043 232.745 629.937 231.41 630.203C230.025 630.478 228.134 631.083 225.277 632.116C218.202 634.672 210.09 635.014 203.348 635.931C172.492 640.128 141.234 637.572 110.907 637.719C101.547 637.765 91.785 642.65 83.7588 648.87L82.751 649.651L81.4893 649.467C80.2763 649.291 79.4772 648.581 79.0459 648.079C78.6084 647.569 78.3238 647.017 78.1445 646.615C77.7941 645.828 77.5725 644.949 77.5391 644.833C76.5569 641.442 76.1117 637.502 75.6133 634.086C75.0895 630.497 74.4992 627.376 73.3467 624.906C70.2431 618.255 65.785 612.358 61.4307 605.7C59.7686 603.158 58.1672 599.963 58.4229 596.561C58.702 592.848 61.0765 589.833 65.2539 587.565C72.1027 583.846 78.047 580.867 81.6318 574.417C86.9791 564.798 88.2348 555.102 86.6846 544.042C85.218 533.58 85.8042 522.493 85.4277 512.462C85.1852 505.999 85.2451 499.959 84.3691 493.986C83.0934 485.286 78.9498 478.313 71.4248 473.642C62.199 467.915 52.6086 462.29 43.4004 456.265C37.3222 452.288 30.4752 451.762 22.6416 451.022C19.5389 450.729 16.5382 449.944 14.6816 447.569C12.8293 445.198 12.7921 442.106 13.2314 439.063C13.7106 435.745 13.4547 432.476 13.4678 428.509C13.4733 426.825 13.8173 424.667 15.5293 423.242C17.306 421.762 19.5389 421.894 21.2852 422.34C24.8964 423.263 27.7736 423.385 30.1191 422.648C32.363 421.942 34.5155 420.324 36.4717 416.919C37.1179 415.795 38.079 415.024 38.9648 414.495C39.8639 413.957 40.8593 413.564 41.8057 413.266C43.6909 412.673 45.765 412.343 47.3203 412.126C63.2763 409.909 78.8862 408.332 94.6104 405.85C95.4431 405.719 96.5764 405.19 97.8174 404.229C99.0251 403.293 100.117 402.114 100.876 401.011C106.346 393.057 110.854 384.922 116.233 376.522C116.952 375.4 118.052 374.574 119.031 374.044C120.015 373.512 121.292 373.054 122.598 373.045C132.562 372.98 147.119 372.324 159.668 371.997Z" fill="#B4DAC5" stroke="#82C64A" stroke-width="6"/>
<circle class="AreaFilterMap-regionCity AreaFilterMap-regionCity--upper" cx="257.421" cy="542.999" r="4" fill="black"/>
<path class="AreaFilterMap-regionCity AreaFilterMap-regionCity--upper" d="M246.627 570.125C245.379 570.125 244.305 569.879 243.405 569.387C242.505 568.895 241.815 568.163 241.335 567.191C240.855 566.219 240.615 564.995 240.615 563.519V559.145H243.333V563.501C243.333 564.545 243.459 565.397 243.711 566.057C243.963 566.705 244.329 567.185 244.809 567.497C245.301 567.797 245.889 567.947 246.573 567.947H246.645C247.353 567.935 247.947 567.779 248.427 567.479C248.919 567.179 249.291 566.705 249.543 566.057C249.795 565.397 249.921 564.551 249.921 563.519V559.145H252.657V563.537C252.657 565.013 252.417 566.237 251.937 567.209C251.457 568.169 250.773 568.895 249.885 569.387C249.009 569.867 247.953 570.113 246.717 570.125H246.627ZM242.559 565.733L242.415 563.897C243.195 563.945 243.789 563.855 244.197 563.627C244.605 563.387 244.887 563.015 245.043 562.511C245.211 562.007 245.295 561.389 245.295 560.657V559.145H248.013V560.531C248.013 561.335 247.917 562.067 247.725 562.727C247.545 563.387 247.245 563.945 246.825 564.401C246.405 564.857 245.847 565.205 245.151 565.445C244.455 565.673 243.591 565.769 242.559 565.733ZM261.901 569.999C261.373 569.087 260.857 568.241 260.353 567.461C259.861 566.669 259.357 565.913 258.841 565.193C258.337 564.461 257.797 563.747 257.221 563.051C256.981 562.751 256.711 562.415 256.411 562.043C256.123 561.659 255.829 561.281 255.529 560.909C255.241 560.537 254.977 560.195 254.737 559.883C254.497 559.571 254.299 559.325 254.143 559.145H257.491C257.719 559.421 257.971 559.751 258.247 560.135C258.523 560.507 258.799 560.885 259.075 561.269C259.363 561.653 259.615 562.001 259.831 562.313C260.383 563.141 260.953 563.975 261.541 564.815C262.129 565.643 262.723 566.489 263.323 567.353C263.923 568.205 264.505 569.087 265.069 569.999H261.901ZM253.837 569.999L254.269 567.101C254.377 566.441 254.539 565.823 254.755 565.247C254.971 564.659 255.307 564.137 255.763 563.681C256.219 563.225 256.849 562.883 257.653 562.655L258.463 564.419C258.103 564.551 257.827 564.761 257.635 565.049C257.443 565.337 257.305 565.673 257.221 566.057C257.137 566.429 257.059 566.831 256.987 567.263L256.573 569.999H253.837ZM261.235 565.607L260.425 563.843C260.845 563.699 261.157 563.483 261.361 563.195C261.577 562.907 261.733 562.571 261.829 562.187C261.937 561.803 262.009 561.407 262.045 560.999L262.279 559.145H264.997L264.781 561.161C264.721 561.809 264.565 562.427 264.313 563.015C264.073 563.603 263.701 564.119 263.197 564.563C262.693 565.007 262.039 565.355 261.235 565.607ZM271.419 569.999V563.015C271.419 562.475 271.287 562.073 271.023 561.809C270.759 561.533 270.375 561.395 269.871 561.395H266.199L266.487 559.145H270.015C271.383 559.145 272.415 559.469 273.111 560.117C273.807 560.753 274.155 561.701 274.155 562.961V569.999H271.419ZM247.283 593.999V587.015C247.283 586.475 247.145 586.073 246.869 585.809C246.605 585.533 246.227 585.395 245.735 585.395H240.137L240.443 583.145H245.879C247.247 583.145 248.279 583.469 248.975 584.117C249.671 584.753 250.019 585.701 250.019 586.961V593.999H247.283ZM240.371 593.999V588.149L243.107 588.005V593.999H240.371ZM254.486 593.999V586.565C254.486 586.265 254.444 586.031 254.36 585.863C254.276 585.695 254.138 585.575 253.946 585.503C253.766 585.431 253.526 585.395 253.226 585.395H252.218L252.506 583.145H253.964C255.068 583.145 255.884 583.415 256.412 583.955C256.952 584.483 257.222 585.263 257.222 586.295V593.999H254.486ZM251.786 593.999V591.749H255.8V593.999H251.786ZM260.468 589.427V583.145H263.204V589.427H260.468ZM258.992 585.395L259.298 583.145H261.998V585.395H258.992ZM265.346 593.999V591.749H269.162C269.81 591.749 270.356 591.617 270.8 591.353C271.244 591.077 271.58 590.699 271.808 590.219C272.048 589.727 272.168 589.145 272.168 588.473C272.168 587.465 271.97 586.673 271.574 586.097C271.178 585.509 270.542 585.215 269.666 585.215C268.958 585.215 268.442 585.365 268.118 585.665C267.806 585.965 267.65 586.355 267.65 586.835C267.65 587.171 267.728 587.459 267.884 587.699C268.052 587.939 268.292 588.101 268.604 588.185C268.712 588.221 268.82 588.257 268.928 588.293C269.036 588.317 269.126 588.329 269.198 588.329L268.982 590.291C268.814 590.315 268.622 590.321 268.406 590.309C268.19 590.285 267.92 590.243 267.596 590.183C266.804 590.027 266.174 589.649 265.706 589.049C265.25 588.437 265.022 587.669 265.022 586.745C265.022 586.013 265.196 585.365 265.544 584.801C265.892 584.225 266.408 583.775 267.092 583.451C267.788 583.127 268.646 582.965 269.666 582.965C271.346 582.965 272.648 583.457 273.572 584.441C274.496 585.413 274.958 586.757 274.958 588.473C274.958 589.613 274.718 590.597 274.238 591.425C273.77 592.253 273.08 592.889 272.168 593.333C271.268 593.777 270.176 593.999 268.892 593.999H265.346Z" fill="black"/>
<path class="AreaFilterMap-regionCity AreaFilterMap-regionCity--upper" d="M86.6739 600.145C88.0419 600.145 89.0739 600.469 89.7699 601.117C90.4659 601.753 90.8139 602.701 90.8139 603.961V610.999H81.0219V604.177C81.0219 604.009 81.0459 603.811 81.0939 603.583C81.1419 603.343 81.2259 603.115 81.3459 602.899C81.4659 602.683 81.6459 602.515 81.8859 602.395H80.0319L80.3199 600.145H86.6739ZM88.0779 608.749V604.015C88.0779 603.475 87.9399 603.073 87.6639 602.809C87.3999 602.533 87.0219 602.395 86.5299 602.395H83.9019C83.8419 602.563 83.7999 602.743 83.7759 602.935C83.7639 603.127 83.7579 603.325 83.7579 603.529V608.749H88.0779ZM93.5117 606.427V600.145H96.2477V606.427H93.5117ZM92.0357 602.395L92.3417 600.145H95.0417V602.395H92.0357ZM103.25 610.999V604.015C103.25 603.475 103.118 603.073 102.854 602.809C102.59 602.533 102.206 602.395 101.702 602.395H98.0303L98.3183 600.145H101.846C103.214 600.145 104.246 600.469 104.942 601.117C105.638 601.753 105.986 602.701 105.986 603.961V610.999H103.25ZM108.893 606.427V600.145H111.629V606.427H108.893ZM107.417 602.395L107.723 600.145H110.423V602.395H107.417ZM113.663 610.999L114.869 604.627L113.357 600.145H116.093L116.777 602.611H116.849C117.017 602.179 117.209 601.801 117.425 601.477C117.641 601.141 117.899 600.865 118.199 600.649C118.499 600.421 118.841 600.253 119.225 600.145C119.621 600.025 120.077 599.965 120.593 599.965C121.445 599.965 122.189 600.175 122.825 600.595C123.473 601.003 123.977 601.603 124.337 602.395C124.709 603.175 124.895 604.123 124.895 605.239V605.491C124.895 606.583 124.697 607.543 124.301 608.371C123.917 609.199 123.353 609.847 122.609 610.315C121.865 610.771 120.965 610.999 119.909 610.999H118.181L118.505 608.749H119.783C120.527 608.749 121.109 608.443 121.529 607.831C121.949 607.219 122.159 606.439 122.159 605.491V605.239C122.159 604.591 122.063 604.045 121.871 603.601C121.679 603.157 121.421 602.827 121.097 602.611C120.785 602.383 120.431 602.269 120.035 602.269C119.603 602.269 119.243 602.335 118.955 602.467C118.667 602.587 118.427 602.773 118.235 603.025C118.055 603.277 117.905 603.577 117.785 603.925C117.665 604.273 117.575 604.663 117.515 605.095L116.489 610.999H113.663ZM133.916 610.999C133.388 610.087 132.872 609.241 132.368 608.461C131.876 607.669 131.372 606.913 130.856 606.193C130.352 605.461 129.812 604.747 129.236 604.051C128.996 603.751 128.726 603.415 128.426 603.043C128.138 602.659 127.844 602.281 127.544 601.909C127.256 601.537 126.992 601.195 126.752 600.883C126.512 600.571 126.314 600.325 126.158 600.145H129.506C129.734 600.421 129.986 600.751 130.262 601.135C130.538 601.507 130.814 601.885 131.09 602.269C131.378 602.653 131.63 603.001 131.846 603.313C132.398 604.141 132.968 604.975 133.556 605.815C134.144 606.643 134.738 607.489 135.338 608.353C135.938 609.205 136.52 610.087 137.084 610.999H133.916ZM125.852 610.999L126.284 608.101C126.392 607.441 126.554 606.823 126.77 606.247C126.986 605.659 127.322 605.137 127.778 604.681C128.234 604.225 128.864 603.883 129.668 603.655L130.478 605.419C130.118 605.551 129.842 605.761 129.65 606.049C129.458 606.337 129.32 606.673 129.236 607.057C129.152 607.429 129.074 607.831 129.002 608.263L128.588 610.999H125.852ZM133.25 606.607L132.44 604.843C132.86 604.699 133.172 604.483 133.376 604.195C133.592 603.907 133.748 603.571 133.844 603.187C133.952 602.803 134.024 602.407 134.06 601.999L134.294 600.145H137.012L136.796 602.161C136.736 602.809 136.58 603.427 136.328 604.015C136.088 604.603 135.716 605.119 135.212 605.563C134.708 606.007 134.054 606.355 133.25 606.607Z" fill="black"/>
<circle class="AreaFilterMap-regionCity AreaFilterMap-regionCity--upper" cx="108.421" cy="623.999" r="4" fill="black"/>
<circle class="AreaFilterMap-regionCity AreaFilterMap-regionCity--upper" cx="70.4209" cy="425.999" r="4" fill="black"/>
<path class="AreaFilterMap-regionCity AreaFilterMap-regionCity--upper" d="M53.8224 452.999V446.015C53.8224 445.475 53.6904 445.073 53.4264 444.809C53.1624 444.533 52.7844 444.395 52.2924 444.395H48.7464L49.0524 442.145H52.4364C53.7924 442.145 54.8184 442.469 55.5144 443.117C56.2104 443.753 56.5584 444.701 56.5584 445.961V450.929C56.4744 451.289 56.3124 451.643 56.0724 451.991C55.8444 452.339 55.6104 452.675 55.3704 452.999H53.8224ZM48.2064 452.999V450.749H57.9084L57.6204 452.999H48.2064ZM66.1299 440.345C66.0219 440.765 65.8839 441.221 65.7159 441.713C65.5479 442.193 65.3679 442.679 65.1759 443.171C64.9839 443.651 64.7859 444.113 64.5819 444.557H62.6559C62.7759 444.077 62.8899 443.579 62.9979 443.063C63.1059 442.535 63.2079 442.019 63.3039 441.515C63.3999 441.011 63.4779 440.555 63.5379 440.147H66.0039L66.1299 440.345ZM62.0259 440.345C61.9179 440.765 61.7799 441.221 61.6119 441.713C61.4439 442.193 61.2639 442.679 61.0719 443.171C60.8799 443.651 60.6819 444.113 60.4779 444.557H58.5519C58.6359 444.197 58.7199 443.825 58.8039 443.441C58.8879 443.057 58.9659 442.673 59.0379 442.289C59.1219 441.893 59.1939 441.515 59.2539 441.155C59.3259 440.795 59.3859 440.459 59.4339 440.147H61.8999L62.0259 440.345ZM72.5256 452.999V446.015C72.5256 445.475 72.3936 445.073 72.1296 444.809C71.8656 444.533 71.4876 444.395 70.9956 444.395H67.4496L67.7556 442.145H71.1396C72.4956 442.145 73.5216 442.469 74.2176 443.117C74.9136 443.753 75.2616 444.701 75.2616 445.961V450.929C75.1776 451.289 75.0156 451.643 74.7756 451.991C74.5476 452.339 74.3136 452.675 74.0736 452.999H72.5256ZM66.9096 452.999V450.749H76.6116L76.3236 452.999H66.9096ZM78.9521 452.999V442.145H81.6881V452.999H78.9521ZM77.4761 444.395L77.7821 442.145H80.7521V444.395H77.4761ZM83.5582 444.395V442.145H92.8102L92.5042 444.395H83.5582ZM88.2742 452.999V446.177C88.2742 446.009 88.2982 445.811 88.3462 445.583C88.3942 445.343 88.4782 445.115 88.5982 444.899C88.7302 444.683 88.9102 444.515 89.1382 444.395H91.3162C91.1722 444.503 91.0822 444.653 91.0462 444.845C91.0222 445.037 91.0102 445.265 91.0102 445.529V452.999H88.2742Z" fill="black"/>
<path class="AreaFilterMap-regionCity AreaFilterMap-regionCity--upper" d="M277.496 634.999V628.015C277.496 627.475 277.364 627.073 277.1 626.809C276.836 626.533 276.452 626.395 275.948 626.395H272.276L272.564 624.145H276.092C277.46 624.145 278.492 624.469 279.188 625.117C279.884 625.753 280.232 626.701 280.232 627.961V634.999H277.496ZM283.086 634.999V624.145H285.822V634.999H283.086ZM281.61 626.395L281.916 624.145H284.886V626.395H281.61ZM291.616 635.089L291.112 632.767H290.914C290.71 633.175 290.506 633.523 290.302 633.811C290.11 634.099 289.894 634.333 289.654 634.513C289.426 634.681 289.168 634.807 288.88 634.891C288.592 634.963 288.25 634.999 287.854 634.999H287.422V632.695H287.854C288.202 632.683 288.526 632.629 288.826 632.533C289.126 632.437 289.396 632.311 289.636 632.155C289.888 631.999 290.104 631.837 290.284 631.669C290.464 631.489 290.602 631.321 290.698 631.165V627.583C290.698 627.139 290.59 626.833 290.374 626.665C290.17 626.497 289.816 626.413 289.312 626.413H288.25L288.538 624.145H290.05C290.83 624.145 291.466 624.271 291.958 624.523C292.462 624.763 292.834 625.117 293.074 625.585C293.314 626.053 293.434 626.629 293.434 627.313V631.831L294.046 634.657L291.616 635.089ZM295.38 634.999L296.586 628.627L295.074 624.145H297.81L298.494 626.611H298.566C298.734 626.179 298.926 625.801 299.142 625.477C299.358 625.141 299.616 624.865 299.916 624.649C300.216 624.421 300.558 624.253 300.942 624.145C301.338 624.025 301.794 623.965 302.31 623.965C303.162 623.965 303.906 624.175 304.542 624.595C305.19 625.003 305.694 625.603 306.054 626.395C306.426 627.175 306.612 628.123 306.612 629.239V629.491C306.612 630.583 306.414 631.543 306.018 632.371C305.634 633.199 305.07 633.847 304.326 634.315C303.582 634.771 302.682 634.999 301.626 634.999H299.898L300.222 632.749H301.5C302.244 632.749 302.826 632.443 303.246 631.831C303.666 631.219 303.876 630.439 303.876 629.491V629.239C303.876 628.591 303.78 628.045 303.588 627.601C303.396 627.157 303.138 626.827 302.814 626.611C302.502 626.383 302.148 626.269 301.752 626.269C301.32 626.269 300.96 626.335 300.672 626.467C300.384 626.587 300.144 626.773 299.952 627.025C299.772 627.277 299.622 627.577 299.502 627.925C299.382 628.273 299.292 628.663 299.232 629.095L298.206 634.999H295.38ZM310.305 624.145H316.587L316.389 625.747L313.149 634.999H310.305L313.383 626.395H307.569V621.607L310.305 621.319V624.145ZM325.599 634.999C325.071 634.087 324.555 633.241 324.051 632.461C323.559 631.669 323.055 630.913 322.539 630.193C322.035 629.461 321.495 628.747 320.919 628.051C320.679 627.751 320.409 627.415 320.109 627.043C319.821 626.659 319.527 626.281 319.227 625.909C318.939 625.537 318.675 625.195 318.435 624.883C318.195 624.571 317.997 624.325 317.841 624.145H321.189C321.417 624.421 321.669 624.751 321.945 625.135C322.221 625.507 322.497 625.885 322.773 626.269C323.061 626.653 323.313 627.001 323.529 627.313C324.081 628.141 324.651 628.975 325.239 629.815C325.827 630.643 326.421 631.489 327.021 632.353C327.621 633.205 328.203 634.087 328.767 634.999H325.599ZM317.535 634.999L317.967 632.101C318.075 631.441 318.237 630.823 318.453 630.247C318.669 629.659 319.005 629.137 319.461 628.681C319.917 628.225 320.547 627.883 321.351 627.655L322.161 629.419C321.801 629.551 321.525 629.761 321.333 630.049C321.141 630.337 321.003 630.673 320.919 631.057C320.835 631.429 320.757 631.831 320.685 632.263L320.271 634.999H317.535ZM324.933 630.607L324.123 628.843C324.543 628.699 324.855 628.483 325.059 628.195C325.275 627.907 325.431 627.571 325.527 627.187C325.635 626.803 325.707 626.407 325.743 625.999L325.977 624.145H328.695L328.479 626.161C328.419 626.809 328.263 627.427 328.011 628.015C327.771 628.603 327.399 629.119 326.895 629.563C326.391 630.007 325.737 630.355 324.933 630.607Z" fill="black"/>
<circle class="AreaFilterMap-regionCity AreaFilterMap-regionCity--upper" cx="300.421" cy="647.999" r="4" fill="black"/>
<path class="AreaFilterMap-regionTitle AreaFilterMap-regionTitle--upper" d="M134.994 459.729H145.224L144.864 463.029L139.494 477.999H133.494L138.534 464.469H129.234V455.799L134.994 455.199V459.729ZM149.278 470.559V459.729H155.038V470.559H149.278ZM147.028 464.469L147.628 459.729H152.488V464.469H147.028ZM163.06 459.729H173.29L172.93 463.029L167.56 477.999H161.56L166.6 464.469H157.3V455.799L163.06 455.199V459.729ZM181.071 478.149L180.411 474.339H180.021C179.701 475.079 179.391 475.689 179.091 476.169C178.791 476.649 178.471 477.019 178.131 477.279C177.791 477.539 177.391 477.729 176.931 477.849C176.471 477.949 175.911 477.999 175.251 477.999H174.351V473.139H175.251C175.811 473.119 176.321 473.059 176.781 472.959C177.241 472.839 177.651 472.689 178.011 472.509C178.371 472.309 178.681 472.109 178.941 471.909C179.201 471.709 179.411 471.509 179.571 471.309V466.299C179.571 465.559 179.401 465.079 179.061 464.859C178.721 464.619 178.111 464.499 177.231 464.499H175.551L176.151 459.729H178.821C180.341 459.729 181.571 459.959 182.511 460.419C183.471 460.879 184.181 461.559 184.641 462.459C185.101 463.339 185.331 464.429 185.331 465.729V472.419L186.171 477.309L181.071 478.149ZM199.957 477.999V466.629C199.957 465.909 199.767 465.369 199.387 465.009C199.027 464.649 198.527 464.469 197.887 464.469H188.347L188.947 459.729H198.157C200.657 459.729 202.537 460.299 203.797 461.439C205.077 462.579 205.717 464.279 205.717 466.539V477.999H199.957ZM188.647 477.999V468.519L194.407 468.219V477.999H188.647ZM126.177 524.399V500.729H131.937V524.099L126.177 524.399ZM123.927 505.469L124.527 500.729H129.987V505.469H123.927ZM137.339 518.999V500.729H143.099V518.999H137.339ZM135.089 505.469L135.689 500.729H141.149V505.469H135.089ZM148.208 511.559V500.729H153.968V511.559H148.208ZM145.958 505.469L146.558 500.729H151.418V505.469H145.958ZM161.991 500.729H172.221L171.861 504.029L166.491 518.999H160.491L165.531 505.469H156.231V496.799L161.991 496.199V500.729ZM173.725 520.199V515.459L181.615 513.989C182.215 513.869 182.745 513.679 183.205 513.419C183.665 513.139 184.055 512.729 184.375 512.189C184.695 511.629 184.955 510.899 185.155 509.999C185.375 509.099 185.535 507.959 185.635 506.579L186.085 500.729H191.845L191.365 506.789C191.285 507.729 191.165 508.689 191.005 509.669C190.845 510.649 190.575 511.609 190.195 512.549C189.815 513.489 189.275 514.369 188.575 515.189C187.875 515.989 186.955 516.699 185.815 517.319C184.695 517.919 183.295 518.379 181.615 518.699L173.725 520.199ZM177.715 516.989L174.685 501.089L180.325 500.429L182.005 510.269C182.165 511.049 182.185 511.849 182.065 512.669C181.945 513.489 181.695 514.279 181.315 515.039C180.935 515.779 180.445 516.429 179.845 516.989H177.715ZM205.714 518.999V507.629C205.714 506.909 205.524 506.369 205.144 506.009C204.784 505.649 204.284 505.469 203.644 505.469H194.104L194.704 500.729H203.914C206.414 500.729 208.294 501.299 209.554 502.439C210.834 503.579 211.474 505.279 211.474 507.539V518.999H205.714ZM194.404 518.999V509.519L200.164 509.219V518.999H194.404ZM122.383 552.559V541.729H128.143V552.559H122.383ZM120.133 546.469L120.733 541.729H125.593V546.469H120.133ZM132.896 559.909C132.736 559.249 132.586 558.569 132.446 557.869C132.306 557.149 132.186 556.449 132.086 555.769C131.986 555.069 131.906 554.409 131.846 553.789C131.806 553.169 131.786 552.619 131.786 552.139C131.786 551.459 131.866 550.769 132.026 550.069C132.206 549.369 132.576 548.699 133.136 548.059C133.716 547.419 134.606 546.849 135.806 546.349L140.696 546.469C139.616 546.809 138.826 547.229 138.326 547.729C137.846 548.229 137.556 548.789 137.456 549.409C137.356 550.029 137.336 550.679 137.396 551.359C137.436 551.839 137.526 552.489 137.666 553.309C137.806 554.129 137.956 554.979 138.116 555.859C138.296 556.739 138.456 557.549 138.596 558.289C138.736 559.029 138.836 559.569 138.896 559.909H132.896ZM130.916 546.469V541.729H141.296L140.696 546.469H130.916ZM142.509 559.999V555.259H148.149C149.229 555.259 150.019 554.889 150.519 554.149C151.019 553.409 151.269 552.389 151.269 551.089C151.269 549.629 151.019 548.499 150.519 547.699C150.019 546.879 149.229 546.469 148.149 546.469H142.509L143.109 541.729H148.149C151.069 541.729 153.289 542.559 154.809 544.219C156.349 545.859 157.119 548.149 157.119 551.089C157.119 553.889 156.349 556.079 154.809 557.659C153.289 559.219 151.069 559.999 148.149 559.999H142.509ZM167.082 559.999V548.629C167.082 547.909 166.892 547.369 166.512 547.009C166.152 546.649 165.652 546.469 165.012 546.469H158.922L159.522 541.729H165.282C167.782 541.729 169.662 542.299 170.922 543.439C172.202 544.579 172.842 546.279 172.842 548.539V559.999H167.082ZM175.803 559.999L177.783 549.409L175.233 541.729H180.993L181.893 545.419H182.073C182.393 544.639 182.743 543.989 183.123 543.469C183.523 542.949 183.973 542.549 184.473 542.269C184.993 541.969 185.563 541.759 186.183 541.639C186.823 541.499 187.543 541.429 188.343 541.429C189.823 541.429 191.113 541.799 192.213 542.539C193.333 543.259 194.203 544.289 194.823 545.629C195.463 546.969 195.783 548.559 195.783 550.399V550.789C195.783 552.589 195.433 554.189 194.733 555.589C194.053 556.969 193.063 558.049 191.763 558.829C190.463 559.609 188.893 559.999 187.053 559.999H184.263L184.923 555.259H186.753C187.773 555.259 188.573 554.839 189.153 553.999C189.733 553.139 190.023 552.069 190.023 550.789V550.399C190.023 549.539 189.893 548.799 189.633 548.179C189.373 547.559 189.023 547.089 188.583 546.769C188.143 546.429 187.643 546.259 187.083 546.259C186.463 546.259 185.943 546.339 185.523 546.499C185.103 546.659 184.753 546.919 184.473 547.279C184.193 547.639 183.963 548.099 183.783 548.659C183.603 549.199 183.453 549.859 183.333 550.639L181.773 559.999H175.803ZM209.507 559.999V548.629C209.507 547.909 209.317 547.369 208.937 547.009C208.577 546.649 208.077 546.469 207.437 546.469H197.897L198.497 541.729H207.707C210.207 541.729 212.087 542.299 213.347 543.439C214.627 544.579 215.267 546.279 215.267 548.539V559.999H209.507ZM198.197 559.999V550.519L203.957 550.219V559.999H198.197Z" fill="#0A9648"/>
</svg>
